<?xml version="1.0" standalone="no"?>
<!DOCTYPE svg PUBLIC "-//W3C//DTD SVG 20010904//EN"
 "http://www.w3.org/TR/2001/REC-SVG-20010904/DTD/svg10.dtd">
<svg version="1.0" xmlns="http://www.w3.org/2000/svg"
 width="1024.000000pt" height="1024.000000pt" viewBox="0 0 1024.000000 1024.000000"
 preserveAspectRatio="xMidYMid meet">
<metadata>
Created by potrace 1.14, written by Peter Selinger 2001-2017
</metadata>
<g transform="translate(0.000000,1024.000000) scale(0.100000,-0.100000)"
fill="#000000" stroke="none">
<path d="M0 5120 l0 -5120 5120 0 5120 0 0 5120 0 5120 -5120 0 -5120 0 0
-5120z m5622 4290 c587 -40 1312 -188 1658 -338 l39 -17 -55 -60 c-42 -46 -57
-56 -66 -47 -7 7 -20 12 -29 12 -9 0 -20 7 -23 16 -3 8 -10 12 -16 9 -5 -3
-16 -3 -22 2 -19 11 -38 13 -38 2 0 -15 -34 2 -56 28 -17 20 -25 23 -41 15
-15 -9 -22 -7 -32 10 -7 11 -19 17 -26 14 -8 -3 -17 -1 -21 5 -3 5 -15 7 -25
4 -14 -5 -28 1 -46 19 -14 15 -29 24 -32 21 -3 -4 -1 -9 4 -13 6 -4 11 -16 13
-27 3 -20 3 -20 -11 -1 -8 10 -19 16 -25 12 -8 -5 -10 -2 -6 9 5 11 2 14 -10
9 -9 -3 -27 1 -41 10 -14 9 -25 12 -25 7 0 -5 -10 -11 -22 -14 -23 -6 -23 -6
-3 9 20 15 19 16 -5 13 -14 -1 -33 2 -44 6 -12 5 -21 3 -26 -6 -7 -11 -10 -10
-16 5 -5 14 -14 17 -36 12 -16 -3 -27 -2 -24 3 3 5 -1 14 -9 21 -13 11 -14 10
-9 -6 6 -16 5 -17 -7 -6 -7 6 -19 12 -27 12 -12 0 -12 -3 -2 -15 7 -9 8 -15 2
-15 -16 0 -24 33 -10 43 9 6 8 7 -5 3 -10 -3 -23 -6 -29 -6 -6 0 -7 -8 -4 -17
6 -15 5 -15 -13 1 -11 10 -24 15 -30 12 -5 -4 -13 -2 -16 4 -4 6 -14 10 -23 9
-27 -2 -61 12 -58 24 2 7 1 9 -1 4 -3 -4 -9 -5 -14 -2 -5 4 -6 -1 -3 -10 5
-11 2 -14 -10 -9 -9 3 -16 10 -16 14 0 4 -7 11 -16 14 -14 5 -15 4 -4 -9 11
-13 10 -14 -4 -9 -9 3 -16 10 -16 16 0 5 -10 6 -21 3 -15 -5 -19 -4 -14 5 6 9
3 9 -13 1 -16 -9 -21 -7 -27 6 -3 10 -9 13 -13 8 -11 -16 -32 -16 -32 -2 0 8
-6 14 -12 14 -7 0 -19 2 -27 4 -7 2 -15 -1 -18 -8 -3 -7 3 -9 16 -6 12 3 21 1
21 -4 0 -11 -30 -11 -49 1 -8 5 -32 10 -55 11 -22 1 -53 7 -67 13 -15 6 -35 9
-45 8 -11 -2 -25 2 -33 8 -12 9 -13 8 -8 -7 6 -16 5 -17 -13 -4 -12 8 -34 13
-50 11 -17 -2 -30 0 -30 5 0 5 -9 11 -20 14 -24 6 -27 -8 -4 -17 9 -4 14 -9
11 -12 -3 -3 -19 2 -37 11 -18 9 -34 14 -38 11 -3 -3 0 -6 6 -6 7 0 12 -4 12
-8 0 -5 -6 -9 -14 -9 -8 0 -15 3 -14 6 2 21 -4 30 -17 25 -8 -4 -13 -10 -10
-14 3 -4 -2 -10 -10 -13 -10 -4 -12 -1 -8 10 5 12 2 15 -10 10 -9 -3 -19 -2
-22 3 -4 7 -13 6 -25 0 -10 -6 -21 -6 -24 -2 -3 5 -19 7 -37 4 -25 -4 -30 -2
-24 9 5 8 4 11 -1 6 -5 -5 -10 -13 -10 -18 -1 -5 -2 -12 -3 -16 0 -3 -10 4
-21 17 -16 18 -20 20 -20 7 0 -10 -5 -17 -11 -17 -6 0 -9 7 -5 15 6 15 -5 20
-18 8 -11 -11 -36 -12 -36 -1 0 7 -5 7 -13 -1 -8 -6 -17 -8 -20 -4 -4 3 -15 0
-24 -8 -16 -13 -17 -12 -5 2 11 14 9 17 -13 17 -13 0 -22 -4 -20 -8 3 -4 -10
-4 -29 0 -19 4 -41 3 -51 -3 -13 -7 -16 -6 -11 2 4 6 2 11 -3 11 -6 0 -11 -5
-11 -12 0 -6 -3 -8 -7 -5 -3 4 -12 2 -20 -5 -11 -8 -12 -7 -7 6 3 9 1 16 -5
16 -6 0 -11 -6 -12 -12 0 -10 -2 -10 -6 0 -4 10 -8 10 -19 1 -11 -9 -14 -8
-14 2 0 9 -3 10 -8 3 -10 -14 -40 -25 -44 -15 -2 5 -14 12 -27 16 -17 5 -21 4
-16 -5 6 -9 3 -9 -13 -1 -16 8 -21 7 -26 -5 -3 -8 -10 -12 -16 -9 -6 4 -7 12
-3 18 4 7 0 6 -10 -2 -11 -9 -17 -10 -17 -2 0 6 -7 11 -15 11 -8 0 -15 -5 -15
-11 0 -5 5 -7 10 -4 6 3 10 1 10 -4 0 -16 -16 -13 -34 5 -10 10 -16 11 -16 4
0 -7 -7 -9 -16 -6 -12 5 -15 2 -10 -11 5 -16 4 -16 -6 -3 -17 19 -138 22 -138
3 0 -7 -5 -13 -11 -13 -5 0 -8 4 -4 10 8 13 -53 4 -71 -11 -12 -10 -13 -9 -7
7 6 17 5 17 -10 5 -14 -11 -20 -11 -32 -1 -11 9 -15 9 -15 1 0 -8 -11 -10 -30
-7 -16 2 -33 0 -36 -6 -3 -5 -15 -8 -25 -5 -11 3 -19 1 -19 -4 0 -5 -11 -9
-25 -9 -14 0 -25 6 -25 13 0 8 -3 8 -8 2 -4 -6 -23 -12 -42 -14 -31 -2 -56 -5
-83 -10 -5 0 -5 -7 -1 -13 4 -7 -3 -4 -15 6 -21 19 -21 19 -15 1 6 -14 4 -16
-7 -10 -17 11 -49 14 -54 5 -2 -4 -18 -6 -35 -5 -16 1 -30 -2 -30 -7 0 -4 -5
-8 -11 -8 -5 0 -7 6 -4 13 4 6 0 4 -8 -5 -10 -13 -16 -15 -25 -6 -9 9 -12 9
-12 -1 0 -7 -6 -11 -14 -8 -7 3 -19 0 -25 -6 -8 -8 -11 -8 -11 1 0 7 -5 12
-11 12 -5 0 -7 -5 -4 -11 5 -7 -7 -9 -35 -6 -35 4 -43 1 -47 -14 -6 -22 -14
-24 -31 -7 -7 7 -12 8 -12 2 0 -15 -61 -15 -80 -1 -13 10 -13 10 -2 -4 10 -14
10 -18 -3 -23 -8 -3 -15 0 -15 6 0 9 -3 9 -12 0 -7 -7 -17 -8 -30 -1 -10 6
-18 6 -18 0 0 -5 -7 -12 -16 -15 -10 -4 -13 -2 -8 7 4 6 -2 4 -13 -6 -11 -9
-23 -14 -27 -10 -8 8 -45 12 -44 4 2 -18 -4 -22 -16 -12 -11 9 -15 8 -20 -5
-5 -13 -9 -14 -20 -5 -11 9 -16 9 -22 0 -5 -8 -3 -9 6 -4 9 5 11 4 6 -4 -6 -9
-11 -9 -22 0 -8 6 -15 9 -15 5 -1 -3 -2 -10 -3 -15 0 -5 -5 -13 -10 -18 -5 -4
-7 -3 -3 3 4 6 -6 10 -28 10 -18 -1 -31 -4 -28 -8 2 -5 -5 -8 -17 -8 -13 0
-19 -4 -14 -11 5 -8 1 -8 -14 0 -16 8 -21 7 -26 -5 -5 -13 -9 -14 -21 -4 -12
10 -15 10 -15 0 0 -7 -8 -10 -20 -7 -13 3 -20 0 -20 -8 0 -8 -5 -17 -12 -21
-7 -4 -8 -3 -4 4 4 7 1 12 -9 12 -11 0 -15 -5 -11 -16 3 -9 2 -12 -5 -9 -6 4
-17 -1 -24 -11 -8 -11 -15 -14 -15 -8 0 7 -9 14 -21 17 -17 5 -18 3 -8 -9 11
-13 9 -14 -14 -9 -21 6 -27 4 -27 -9 0 -10 -17 2 -45 32 l-45 47 52 24 c210
94 715 213 1193 280 116 16 335 37 585 54 116 9 745 6 882 -3z m-2927 -357
c99 -128 301 -382 521 -653 78 -97 130 -172 156 -225 l38 -80 -2 337 c-2 185
0 334 3 330 4 -4 19 -45 34 -92 58 -181 180 -482 260 -647 114 -233 246 -427
424 -623 l50 -55 1 65 c0 36 9 220 20 410 11 190 20 362 20 383 0 20 5 37 10
37 6 0 10 -12 10 -27 0 -48 119 -872 155 -1073 19 -107 38 -214 41 -238 4 -27
14 -46 26 -53 11 -6 33 -31 50 -57 l30 -47 -5 270 -4 270 47 -145 c26 -80 70
-203 98 -275 74 -193 197 -498 210 -521 16 -28 19 -9 26 126 5 119 38 541 81
1045 39 456 83 995 96 1173 6 89 15 175 19 190 l8 27 1 -30 c2 -70 32 -499 51
-730 11 -137 25 -315 30 -395 6 -80 17 -224 25 -320 25 -296 75 -1036 75
-1107 0 -37 4 -63 8 -57 5 5 44 104 87 219 43 116 102 271 133 345 30 74 79
203 109 285 l53 150 -6 -310 c-3 -170 -8 -337 -10 -370 l-3 -59 51 51 51 51 9
115 c12 178 44 412 149 1089 32 213 59 399 60 415 3 84 18 -67 29 -282 17
-366 30 -598 33 -602 2 -1 39 38 83 88 97 111 232 299 297 413 90 158 242 507
343 790 l43 121 -4 -105 c-6 -148 -16 -1084 -11 -1079 2 2 36 64 75 136 l71
133 0 256 0 257 88 91 c158 165 500 578 641 776 62 87 77 104 67 75 -73 -194
-181 -535 -236 -742 l-40 -152 2 -843 3 -843 58 89 c90 136 216 342 269 436
26 47 48 79 48 73 0 -7 -13 -54 -29 -105 -92 -292 -260 -870 -301 -1034 -16
-61 -33 -151 -39 -200 -14 -118 -15 -1944 -1 -1944 6 0 9 4 8 8 -5 15 76 201
84 196 4 -3 8 0 8 5 0 6 -5 11 -10 11 -6 0 -5 6 2 14 7 8 18 11 23 8 6 -3 3 2
-5 12 -13 16 -12 20 6 35 11 9 22 24 23 34 1 9 2 26 3 36 1 11 7 19 12 18 6
-1 15 8 21 21 5 12 13 22 18 22 4 0 6 4 2 10 -3 5 4 19 16 31 17 17 19 23 8
31 -11 7 -9 9 7 5 18 -4 21 0 18 25 -2 16 0 27 5 24 11 -7 23 22 15 35 -3 5 0
9 7 9 6 0 9 8 6 20 -3 11 -1 17 4 14 5 -3 13 5 18 18 6 13 10 17 10 10 1 -7 5
-11 11 -7 5 3 6 13 3 22 -5 12 -2 15 10 10 11 -4 14 -2 10 9 -3 7 -10 14 -16
14 -6 0 -7 3 -3 8 4 4 10 6 13 4 3 -2 12 12 22 30 9 20 23 32 33 32 10 -1 15
2 12 8 -3 5 -15 6 -27 2 -21 -6 -21 -5 -4 8 10 8 17 18 16 23 -1 6 1 18 6 28
6 14 10 15 22 6 12 -10 13 -8 9 14 -5 27 8 37 18 15 3 -7 3 -1 0 14 -5 23 -2
30 17 37 13 5 18 10 12 10 -7 1 -13 6 -13 11 0 6 6 9 13 8 7 -2 11 5 9 16 -2
10 1 15 7 11 7 -3 8 0 5 9 -3 9 -1 16 5 16 6 0 11 7 11 16 0 9 5 12 12 8 8 -5
9 -2 5 9 -3 9 -2 19 4 23 7 4 6 10 -1 19 -8 10 -8 15 1 21 8 4 9 3 5 -4 -4 -7
-2 -12 4 -12 8 0 10 10 6 28 -3 15 -3 21 0 14 3 -6 10 -9 15 -6 6 3 5 11 -2
20 -10 12 -9 13 5 8 11 -4 16 -1 16 11 0 10 -5 14 -12 10 -7 -4 -2 2 11 13 13
11 22 26 19 34 -8 19 18 52 32 43 9 -6 9 -2 1 13 -7 12 -7 23 -2 26 5 4 12 0
15 -6 3 -7 3 -1 0 15 -6 27 9 38 20 15 5 -12 0 16 -10 52 -3 10 3 16 17 17 12
1 27 7 33 14 8 9 6 10 -11 6 -13 -3 -24 1 -27 8 -3 8 2 11 14 8 12 -3 20 2 25
16 3 12 11 18 17 15 6 -4 8 1 3 16 -5 15 -4 20 4 16 7 -5 10 3 7 23 -2 23 1
32 15 36 11 4 19 11 19 16 0 6 -6 7 -12 3 -10 -5 -10 -3 0 7 11 12 14 12 22
-1 5 -8 10 -10 10 -4 0 6 -9 23 -21 38 -11 14 -16 26 -11 26 6 0 12 -6 15 -12
3 -8 9 -2 15 14 6 14 16 29 22 33 5 3 8 10 5 15 -3 5 -1 11 5 15 6 4 7 11 4
17 -4 7 2 8 17 3 22 -6 22 -6 7 6 -13 11 -15 18 -7 29 9 13 10 12 5 -2 -3 -10
-1 -18 4 -18 6 0 10 9 10 20 0 11 6 20 13 20 6 0 -1 11 -17 25 -31 26 -29 33
4 13 10 -7 23 -9 27 -5 4 5 1 12 -7 17 -9 6 -10 10 -3 10 15 0 44 58 32 66 -5
3 -9 11 -9 17 0 7 4 6 10 -3 8 -13 11 -11 16 7 4 13 9 21 13 19 3 -2 7 10 8
27 1 17 10 46 19 65 8 18 13 44 10 57 -5 20 -3 22 17 19 12 -2 16 -2 10 2 -18
8 -16 25 2 18 8 -4 15 -1 15 5 0 6 -8 11 -17 12 -12 0 -8 5 12 14 26 12 27 20
4 17 -16 -2 5 38 22 43 10 4 19 10 19 15 0 5 -8 6 -17 3 -15 -6 -16 -5 -3 9 8
9 19 13 24 10 5 -3 6 0 2 6 -4 6 -12 10 -19 9 -7 -2 -2 1 11 7 12 6 20 16 18
23 -3 7 -1 13 4 13 6 0 10 4 10 9 0 6 -9 9 -21 8 -14 -1 -19 -7 -16 -19 5 -17
-21 -34 -32 -22 -3 4 -1 9 6 11 7 2 9 11 6 19 -3 8 0 14 7 14 6 0 8 5 5 10 -4
6 -9 8 -13 6 -4 -2 -8 7 -9 22 -1 25 -1 25 19 -6 23 -37 33 -41 25 -12 -3 11
-1 20 4 20 5 0 9 5 9 11 0 6 -9 8 -20 4 -11 -4 -20 -2 -20 4 0 6 5 10 11 8 6
-1 13 10 14 25 3 21 0 26 -13 21 -13 -4 -14 -3 -3 5 7 5 10 15 7 21 -4 6 -3
11 2 11 5 0 14 -11 20 -25 15 -32 15 -38 2 -30 -5 3 -10 2 -10 -4 0 -5 9 -9
20 -8 11 1 19 6 16 12 -19 46 -19 48 -6 40 10 -6 12 -4 7 8 -4 10 -10 25 -13
35 -5 16 -5 16 6 -1 6 -9 16 -15 22 -11 7 4 5 10 -3 16 -11 7 -11 11 -1 15 6
2 9 9 6 15 -4 6 0 14 7 19 11 7 10 9 -3 9 -10 0 -18 5 -18 11 0 5 5 7 10 4 6
-3 10 -1 10 5 0 8 -7 9 -17 5 -10 -4 -24 -8 -31 -8 -7 0 -10 -6 -7 -14 14 -36
17 -48 7 -34 -5 7 -15 10 -22 6 -12 -7 -30 10 -30 30 0 6 4 3 10 -5 5 -8 12
-11 16 -7 4 3 1 13 -6 22 -11 13 -10 14 4 9 19 -7 21 6 4 25 -11 11 -10 13 5
8 9 -4 17 -2 17 4 0 6 4 8 9 4 5 -3 13 0 17 6 5 9 -1 10 -20 5 -15 -4 -26 -2
-26 4 0 5 4 10 10 10 5 0 7 7 4 15 -4 8 -1 15 6 15 6 0 8 5 5 10 -9 14 8 13
23 -2 9 -9 12 -9 12 0 0 7 -4 12 -8 12 -5 0 -9 6 -9 13 0 6 -2 17 -3 22 -5 22
1 46 10 40 8 -5 7 -11 -1 -21 -9 -11 -9 -14 0 -14 7 0 10 -4 6 -9 -3 -5 0 -13
6 -17 9 -5 10 1 5 20 -7 28 2 33 24 14 12 -11 12 -10 2 3 -7 9 -10 24 -6 33 4
10 0 18 -10 22 -9 3 -16 10 -16 16 0 5 4 7 9 4 4 -3 17 1 27 9 17 13 13 13
-28 1 -40 -12 -48 -12 -48 -1 0 8 8 12 20 10 11 -2 20 1 20 6 0 6 4 7 10 4 16
-10 -2 28 -22 46 -24 21 -23 29 3 29 13 0 19 -5 16 -13 -4 -12 8 -14 43 -8 3
1 -8 8 -25 17 -16 8 -37 13 -47 11 -32 -9 -19 12 15 23 l32 10 -38 -6 c-21 -3
-44 -6 -50 -8 -7 -1 -9 -1 -4 1 14 8 7 25 -8 19 -8 -3 -15 -3 -15 0 0 13 46
21 59 10 12 -9 12 -8 3 11 -15 28 -15 28 8 30 11 1 20 -3 20 -8 0 -6 -4 -7
-10 -4 -5 3 -10 1 -10 -4 0 -13 3 -13 24 -5 8 3 12 12 9 20 -9 25 12 15 29
-13 10 -16 18 -23 18 -16 0 6 -4 15 -10 18 -5 3 -10 13 -10 21 0 9 5 12 12 8
7 -4 8 -3 4 4 -5 8 -15 8 -33 1 -30 -11 -46 -2 -20 12 21 12 21 28 0 54 -12
16 -14 16 -10 3 3 -10 2 -20 -3 -23 -5 -3 -7 -12 -3 -20 3 -8 0 -15 -7 -15
-15 0 -4 71 13 82 9 6 9 10 0 16 -15 9 -5 54 10 45 6 -3 7 -1 3 5 -4 6 -13 9
-21 5 -8 -3 -15 0 -15 6 0 6 5 11 11 11 5 0 7 5 3 11 -5 8 -9 8 -14 -1 -5 -9
-9 -9 -14 -1 -4 6 -4 16 0 23 4 7 3 8 -4 4 -7 -4 -12 -13 -12 -19 0 -7 -9 -13
-20 -14 -11 -1 -20 2 -20 8 0 5 7 9 15 9 8 0 15 9 15 21 0 11 5 17 10 14 6 -3
10 -1 10 5 0 6 4 9 9 6 5 -4 7 2 4 12 -3 13 2 18 18 19 12 1 27 7 33 13 8 8 4
9 -14 2 -14 -5 -33 -8 -42 -7 -10 2 -18 -2 -18 -8 -1 -14 -30 22 -30 37 0 5 7
1 16 -10 15 -18 15 -18 9 4 -5 16 -2 22 9 23 29 3 34 4 42 11 3 4 -4 5 -17 3
-67 -14 -79 -14 -79 -5 0 5 6 10 13 11 25 1 49 8 55 15 4 4 -1 4 -11 1 -13 -5
-17 -3 -14 5 2 7 10 12 16 11 6 -2 11 1 11 6 0 5 -18 9 -40 8 -22 -1 -40 -4
-40 -7 0 -3 -9 -6 -20 -7 -21 -2 -28 13 -7 15 59 8 87 15 87 22 0 5 -11 7 -25
4 -29 -5 -32 3 -7 23 11 8 12 12 3 11 -7 -2 -15 2 -18 9 -3 8 3 11 16 8 14 -3
18 0 14 12 -3 8 -9 11 -12 6 -5 -8 -16 -9 -38 -4 -5 1 8 11 27 22 34 19 32 20
-17 5 -17 -6 -23 -3 -23 8 0 10 6 13 15 10 8 -4 15 -2 15 4 0 5 11 8 24 7 18
-2 23 1 19 12 -4 11 -8 12 -13 3 -4 -7 -12 -10 -18 -6 -6 3 -13 2 -17 -4 -7
-11 -25 -4 -25 10 0 5 6 10 13 13 6 2 2 2 -10 0 -27 -4 -47 28 -39 62 3 13 2
27 -4 30 -5 3 -10 15 -10 26 0 10 -5 19 -11 19 -5 0 -7 5 -4 10 4 6 11 8 16 5
5 -4 9 -1 9 5 0 7 -8 9 -20 5 -12 -4 -27 -1 -35 5 -8 6 -18 9 -24 6 -5 -4 -9
13 -8 40 0 42 2 45 14 28 8 -10 16 -29 19 -41 5 -19 8 -20 20 -8 18 18 18 26
-1 19 -17 -7 -31 37 -19 58 6 10 4 10 -7 2 -22 -16 -43 -11 -47 11 -2 16 -1
17 7 5 9 -13 12 -13 23 -1 8 9 9 11 1 7 -6 -3 -15 -2 -18 4 -4 6 -23 9 -42 8
-25 -2 -37 2 -41 12 -5 13 -3 13 11 1 15 -12 17 -11 17 3 0 9 -8 16 -20 16
-11 0 -20 4 -20 10 0 5 8 7 18 4 15 -5 15 -4 -2 10 -14 11 -17 23 -12 46 5 28
4 30 -10 16 -8 -9 -12 -20 -9 -26 3 -5 2 -10 -4 -10 -12 0 -25 56 -16 70 4 6
13 9 21 6 8 -3 14 -1 14 4 0 11 -11 13 -34 4 -9 -3 -16 -12 -16 -20 0 -8 -2
-14 -4 -14 -2 0 -11 -3 -20 -6 -9 -3 -16 -1 -16 6 0 6 4 9 9 6 5 -3 12 1 15
10 9 24 7 46 -4 39 -5 -3 -7 -12 -3 -20 3 -8 0 -15 -6 -15 -6 0 -11 7 -11 16
0 8 -4 12 -10 9 -5 -3 -10 -1 -10 5 0 7 7 10 15 6 9 -3 15 0 15 10 0 8 5 12
10 9 24 -15 7 10 -25 38 -32 27 -50 57 -25 42 6 -3 10 1 10 10 0 13 -4 14 -20
5 -11 -6 -20 -8 -20 -4 0 3 -7 1 -15 -6 -9 -7 -18 -10 -21 -7 -3 3 4 10 15 17
12 6 21 18 21 27 0 14 -2 14 -15 -3 -15 -18 -15 -18 -12 6 2 14 2 19 0 13 -3
-7 -9 -13 -14 -13 -12 0 -11 7 1 31 8 15 7 19 -5 19 -8 0 -15 6 -15 13 0 8 -4
7 -10 -3 -8 -12 -10 -10 -11 10 0 23 -1 23 -9 5 -8 -18 -9 -17 -9 7 -1 16 5
28 15 30 13 3 13 5 -1 23 -13 15 -15 16 -11 3 2 -9 -2 -19 -9 -22 -9 -3 -12
-13 -9 -23 5 -15 4 -15 -5 -3 -5 8 -13 11 -17 7 -4 -4 -2 -13 4 -19 7 -7 12
-16 12 -21 0 -12 -23 14 -37 43 -24 48 -33 80 -23 80 6 0 10 4 10 10 0 5 -7 7
-16 3 -13 -5 -15 -2 -10 15 4 11 2 23 -3 27 -7 3 -8 0 -5 -9 3 -9 1 -16 -5
-16 -8 0 -9 -5 -1 -19 5 -11 10 -26 10 -33 -1 -7 -7 2 -15 20 -8 18 -19 31
-24 28 -5 -4 -13 -2 -16 4 -5 8 -12 7 -23 -2 -15 -12 -16 -11 -4 4 10 13 19
15 38 8 19 -8 24 -6 24 6 0 8 -5 12 -10 9 -6 -4 -9 -2 -8 4 2 5 -6 17 -17 26
-20 16 -20 16 4 9 21 -5 22 -4 10 9 -17 18 -43 2 -35 -20 3 -8 -2 -17 -11 -20
-9 -4 -18 -2 -21 5 -2 6 -11 8 -20 5 -14 -4 -14 -3 -3 5 8 6 11 17 8 27 -4 9
-3 14 3 10 6 -3 7 1 4 10 -5 12 -10 13 -20 4 -8 -6 -11 -16 -7 -22 4 -6 1 -7
-6 -2 -9 5 -10 10 -2 18 7 7 7 15 -2 26 -9 12 -9 13 1 7 8 -4 12 -1 12 9 0 11
-5 15 -15 11 -12 -4 -14 4 -9 49 6 68 28 131 44 127 18 -4 185 -118 280 -190
418 -320 697 -756 789 -1232 80 -418 44 -751 -130 -1187 -244 -614 -650 -1444
-1104 -2258 -61 -110 -135 -227 -439 -699 l-51 -80 -7 670 c-8 695 -4 2053 6
2184 4 47 3 66 -3 50 -4 -14 -39 -97 -76 -185 -164 -388 -263 -685 -314 -945
-59 -298 -125 -702 -161 -990 -23 -176 -29 -214 -36 -195 -2 6 -12 224 -24
485 -18 418 -21 588 -18 1413 2 515 0 937 -3 937 -4 0 -9 -18 -13 -39 -3 -21
-33 -133 -65 -247 -133 -464 -176 -676 -225 -1089 -42 -352 -39 -342 -55 -185
-26 267 -46 394 -131 835 l-43 220 225 455 c124 250 244 498 266 550 40 95 69
187 60 195 -4 4 -116 -145 -203 -271 -27 -40 -154 -218 -281 -396 -288 -403
-756 -1095 -870 -1285 l-20 -32 -342 512 c-188 281 -375 559 -416 617 -386
556 -610 864 -614 845 -8 -34 148 -382 436 -976 l100 -206 -44 -219 c-62 -304
-79 -420 -109 -714 -15 -140 -28 -256 -30 -258 -4 -5 -13 51 -40 268 -62 498
-128 821 -256 1258 -21 73 -39 139 -39 147 0 8 -4 15 -10 15 -6 0 -9 -32 -8
-77 5 -165 -6 -1902 -13 -2158 -9 -336 -20 -597 -25 -592 -2 2 -17 98 -34 213
-17 115 -42 274 -56 354 -14 80 -42 246 -64 370 -85 491 -199 874 -369 1245
l-51 110 0 -1445 c0 -1407 0 -1444 -19 -1425 -31 34 -285 441 -436 700 -220
378 -637 1193 -874 1707 -354 767 -435 1034 -435 1423 1 358 87 679 259 967
133 222 294 410 487 571 112 93 338 247 364 247 10 0 41 -109 32 -114 -1 -1
-12 -8 -22 -16 -18 -13 -19 -13 -12 0 4 8 -7 -1 -24 -20 -17 -19 -28 -29 -24
-21 4 9 2 12 -7 9 -8 -3 -13 -11 -11 -18 2 -8 -3 -10 -14 -6 -12 4 -15 2 -10
-9 5 -14 -11 -20 -37 -16 -4 1 -19 -10 -33 -24 -14 -14 -32 -25 -41 -25 -9 0
-13 -6 -10 -14 4 -11 1 -13 -11 -9 -15 6 -15 5 -3 -10 12 -15 12 -17 -4 -11
-14 6 -16 4 -10 -6 6 -10 4 -12 -8 -7 -9 3 -19 2 -22 -3 -4 -6 -1 -10 6 -10 7
0 9 -3 6 -6 -4 -4 -13 -1 -21 5 -12 10 -14 9 -11 -6 3 -22 -63 -86 -81 -79 -8
3 -11 0 -8 -8 4 -12 -21 -41 -35 -41 -3 0 -5 -3 -4 -7 2 -5 -4 -8 -12 -8 -13
0 -14 -4 -5 -21 11 -19 10 -20 -10 -9 -20 11 -21 10 -15 -10 5 -17 4 -21 -6
-15 -9 6 -11 3 -6 -10 6 -14 3 -16 -13 -12 -11 3 -18 1 -14 -4 5 -8 -9 -13
-29 -10 -4 1 -4 -11 -1 -26 6 -22 4 -25 -10 -20 -9 4 -15 3 -12 -1 7 -11 -21
-45 -33 -38 -6 4 -8 -3 -5 -19 2 -14 0 -25 -6 -25 -5 0 -10 8 -11 18 0 14 -2
14 -8 -3 -5 -11 -6 -26 -3 -34 4 -10 1 -13 -11 -8 -9 3 -17 2 -17 -2 0 -5 6
-12 13 -14 6 -3 1 -6 -13 -7 -14 -1 -19 -4 -12 -7 22 -9 13 -25 -10 -18 -18 5
-20 4 -8 -4 13 -9 13 -12 1 -20 -8 -5 -10 -14 -6 -21 5 -9 4 -11 -3 -6 -7 4
-12 3 -12 -3 0 -5 6 -12 13 -14 7 -3 5 -6 -5 -6 -10 -1 -18 -6 -18 -12 0 -5
-4 -7 -10 -4 -14 9 -12 -8 3 -24 6 -8 7 -11 1 -8 -6 4 -20 -1 -30 -9 -10 -9
-13 -13 -6 -9 7 4 12 0 12 -10 0 -10 -5 -13 -12 -9 -7 5 -8 3 -4 -5 5 -8 0
-14 -15 -18 -22 -6 -22 -7 -3 -14 19 -7 19 -8 -1 -8 -16 -1 -17 -3 -5 -11 13
-8 13 -11 1 -22 -10 -10 -12 -10 -7 0 4 6 2 12 -3 12 -15 0 -14 -27 2 -33 7
-3 5 -6 -5 -6 -16 -1 -23 -12 -19 -33 1 -11 -22 -5 -31 7 -5 6 -8 5 -8 -3 0
-7 6 -15 14 -18 11 -4 12 -12 4 -35 -5 -16 -8 -35 -5 -43 3 -7 1 -19 -5 -27
-8 -11 -9 -11 -4 3 3 12 1 15 -9 11 -8 -3 -12 -9 -9 -14 3 -6 0 -18 -8 -27
-12 -15 -11 -16 5 -3 15 12 17 12 11 -4 -5 -13 -4 -16 4 -11 8 5 10 1 5 -10
-4 -11 -8 -13 -11 -6 -3 9 -7 8 -16 -1 -8 -6 -11 -18 -8 -26 4 -10 1 -12 -9
-6 -8 4 -11 4 -6 0 4 -5 0 -19 -8 -32 -18 -27 -13 -30 11 -5 17 16 18 16 11
-1 -4 -10 -7 -23 -7 -28 0 -6 -4 -8 -9 -5 -5 3 -11 -1 -15 -9 -3 -8 0 -15 6
-15 9 0 9 -3 0 -12 -14 -14 -16 -58 -2 -58 6 0 6 -9 0 -26 -6 -14 -8 -30 -4
-35 3 -5 -3 -9 -13 -10 -16 0 -16 -1 1 -8 14 -5 16 -10 8 -15 -7 -4 -10 -12
-7 -17 4 -5 1 -9 -5 -9 -8 0 -7 -6 1 -21 6 -12 7 -19 1 -15 -11 7 -11 -49 1
-60 4 -4 7 -12 7 -18 0 -5 -7 -1 -15 10 -17 22 -20 12 -5 -17 8 -13 7 -19 0
-19 -6 0 -5 -13 4 -35 8 -19 11 -35 7 -35 -5 0 -12 12 -15 26 -4 15 -9 24 -13
21 -3 -3 2 -20 11 -37 13 -27 13 -31 1 -26 -11 4 -12 0 -5 -19 9 -22 6 -28
-10 -27 -3 0 -6 -10 -6 -23 -2 -19 1 -21 11 -12 7 7 10 17 7 22 -3 6 2 4 11
-4 20 -16 22 -22 6 -19 -6 2 -14 -3 -16 -9 -3 -7 0 -13 7 -13 6 0 8 -5 5 -10
-4 -6 -12 -7 -18 -3 -7 4 -6 0 2 -10 7 -9 11 -24 7 -32 -3 -9 -2 -14 3 -11 11
7 25 -25 14 -33 -4 -3 -9 -12 -11 -20 -3 -12 -1 -12 14 0 16 13 16 12 5 -9
-12 -23 -7 -47 9 -37 5 3 11 1 15 -4 3 -6 -4 -8 -16 -6 -17 4 -20 2 -11 -7 13
-13 16 -32 4 -24 -4 2 -8 -4 -8 -15 0 -10 4 -19 8 -19 4 0 7 -3 7 -7 -1 -5 -1
-14 0 -21 1 -15 21 -6 21 9 0 6 -4 8 -8 5 -4 -2 -8 4 -8 15 0 12 4 15 10 9 12
-12 15 -70 4 -70 -5 0 -6 -5 -3 -10 4 -6 11 -8 16 -5 14 9 11 -3 -8 -33 l-17
-27 21 18 c16 14 23 15 29 6 4 -8 3 -10 -4 -5 -14 8 -15 4 -6 -18 3 -9 10 -13
15 -10 5 3 6 -2 3 -10 -3 -9 -10 -13 -15 -10 -5 3 -6 -2 -3 -10 3 -9 10 -16
16 -16 5 0 6 -4 3 -10 -3 -5 -3 -16 1 -22 11 -17 13 -48 3 -43 -4 3 -5 -4 -2
-15 3 -11 9 -23 14 -26 5 -3 6 1 3 9 -3 8 -1 18 4 21 10 6 8 -22 -4 -63 -5
-17 -4 -23 6 -19 8 2 15 11 18 19 3 11 2 11 -7 -1 -7 -9 -11 -10 -11 -3 0 16
17 26 25 13 3 -5 0 -20 -6 -32 -11 -20 -10 -21 3 -11 12 10 15 10 15 -2 0 -8
-4 -15 -9 -15 -12 0 -10 -28 4 -36 6 -4 8 -3 4 4 -3 6 -2 14 4 17 6 4 9 3 8
-2 -1 -4 3 -17 9 -29 6 -11 8 -26 4 -33 -6 -10 -12 -7 -25 10 -9 13 -16 19
-16 13 0 -6 8 -18 18 -27 15 -13 21 -14 31 -4 10 9 11 9 6 -4 -3 -9 1 -23 10
-32 8 -9 11 -18 6 -22 -10 -6 -11 -44 -1 -43 18 2 23 -4 10 -12 -12 -8 -12
-10 5 -10 17 0 17 -2 5 -10 -9 -6 -11 -10 -3 -10 7 0 10 -7 7 -15 -4 -9 2 -18
17 -24 13 -5 18 -10 11 -10 -7 -1 -10 -6 -7 -11 4 -6 11 -8 16 -5 5 3 6 -1 3
-9 -3 -9 -1 -16 5 -16 9 0 9 -6 0 -22 -12 -22 -11 -22 6 -8 11 9 16 10 11 3
-5 -9 -1 -13 11 -14 11 0 13 -3 5 -6 -6 -2 -9 -9 -6 -15 4 -6 8 -20 9 -32 4
-36 5 -37 15 -31 12 7 2 -23 -14 -44 -8 -11 -8 -13 1 -8 6 4 18 0 26 -8 9 -8
19 -15 23 -15 5 0 3 5 -3 11 -6 6 -10 17 -9 23 2 6 1 8 -1 4 -3 -5 -9 -8 -15
-8 -6 0 -6 6 2 15 14 17 34 9 26 -11 -3 -7 -1 -16 4 -19 16 -10 11 -25 -7 -26
-17 -1 -17 -2 0 -6 9 -2 17 -8 17 -13 0 -5 8 -11 18 -13 12 -3 10 -5 -7 -6
l-24 -1 21 -18 c15 -13 18 -22 11 -35 -8 -13 -6 -15 7 -10 14 5 14 3 3 -15 -8
-13 -16 -17 -20 -11 -5 8 -9 8 -13 0 -4 -6 -2 -11 4 -11 6 0 9 -4 6 -9 -3 -5
1 -11 9 -14 10 -4 12 -1 8 10 -4 11 -2 14 5 9 8 -5 10 -2 6 8 -3 9 -1 16 6 16
6 0 8 -5 5 -10 -3 -6 1 -13 9 -16 9 -3 13 -11 10 -16 -4 -6 -10 -5 -16 3 -8
11 -9 11 -5 -1 2 -8 12 -14 21 -14 13 2 14 -1 5 -12 -9 -12 -15 -12 -28 -2
-14 11 -14 11 -3 -3 7 -9 10 -25 6 -35 -3 -11 -2 -15 3 -9 4 6 14 10 21 9 6
-1 20 -2 30 -3 14 -1 15 -3 2 -10 -8 -6 -18 -7 -23 -4 -5 3 -4 -4 2 -16 10
-19 29 -26 54 -22 5 1 5 -3 2 -9 -4 -6 -13 -9 -21 -6 -12 5 -12 1 0 -23 9 -16
12 -32 8 -36 -4 -5 -1 -4 7 0 10 6 13 4 9 -7 -4 -9 0 -15 8 -15 10 0 9 8 -6
33 -17 27 -18 33 -6 37 11 4 13 1 9 -10 -4 -11 -2 -14 5 -9 8 5 10 1 5 -10 -4
-11 -2 -15 4 -11 6 4 9 -5 7 -23 -2 -17 1 -30 7 -30 6 0 7 -5 3 -12 -5 -8 -2
-9 11 -4 15 5 16 4 5 -9 -8 -10 -9 -15 -1 -15 6 0 11 -5 11 -11 0 -5 -4 -8 -9
-4 -5 3 -13 0 -17 -6 -5 -8 -3 -9 6 -4 9 6 12 4 8 -7 -4 -8 0 -15 8 -15 7 0
11 4 8 9 -3 4 2 8 11 8 9 0 13 -4 10 -10 -3 -5 -1 -10 6 -10 8 0 8 -4 -1 -15
-7 -8 -11 -15 -9 -16 2 0 12 -2 22 -4 11 -2 22 -7 25 -11 4 -4 -1 -4 -10 -1
-10 4 -18 3 -18 -2 0 -14 26 -32 34 -24 4 4 2 -5 -4 -21 -9 -24 -8 -27 3 -18
11 9 13 7 11 -11 -1 -12 -3 -24 -4 -27 -1 -3 -2 -8 -1 -12 0 -5 -5 -8 -12 -8
-8 0 -7 -3 3 -10 9 -6 20 -5 29 3 12 10 14 9 8 -5 -4 -12 -2 -15 8 -12 15 6
16 -26 0 -39 -5 -5 0 -6 12 -2 25 7 41 -11 24 -28 -6 -6 -11 -16 -11 -22 0 -5
4 -4 9 4 13 20 33 3 25 -21 -4 -14 -2 -18 5 -14 7 5 9 1 5 -8 -3 -9 -10 -16
-16 -16 -5 0 -6 5 -3 10 3 6 1 10 -5 10 -7 0 -9 -7 -6 -15 3 -8 9 -22 13 -32
4 -10 3 -14 -5 -9 -6 3 -13 2 -16 -3 -4 -5 2 -8 11 -6 10 2 18 4 18 6 0 1 10
3 23 4 12 1 22 -2 22 -6 0 -5 -9 -9 -20 -9 -11 0 -20 -4 -20 -9 0 -4 11 -7 24
-6 22 3 24 1 14 -20 -6 -14 -16 -21 -24 -18 -8 3 -12 8 -10 12 2 3 -2 11 -9
18 -10 10 -16 9 -26 -3 -10 -12 -9 -13 4 -9 10 4 17 -1 22 -14 4 -12 11 -18
17 -15 8 5 9 1 5 -10 -5 -14 -3 -17 8 -12 9 3 15 0 15 -10 0 -9 -5 -12 -12 -8
-7 4 -8 3 -4 -5 4 -6 12 -8 18 -5 7 5 9 2 6 -7 -3 -8 -2 -23 3 -34 l8 -20 1
20 c2 11 2 27 1 35 -2 12 0 13 7 1 5 -7 7 -22 4 -34 -4 -15 -2 -18 8 -12 8 5
11 3 8 -6 -3 -8 -10 -14 -15 -14 -29 0 -17 -10 14 -12 29 -2 33 0 22 13 -19
23 -5 26 21 4 13 -11 17 -20 10 -20 -10 0 -10 -3 0 -15 13 -16 6 -50 -9 -40
-5 3 -12 1 -15 -4 -3 -4 12 -8 33 -7 29 2 37 -2 34 -11 -4 -9 -9 -10 -17 -4
-8 7 -12 4 -12 -8 0 -14 7 -18 28 -16 16 2 31 -1 34 -6 3 -5 0 -8 -7 -7 -6 2
-14 -3 -17 -11 -3 -9 0 -11 8 -6 7 4 5 -7 -5 -26 l-18 -34 29 25 28 25 -18
-29 c-17 -27 -17 -29 -1 -22 14 5 16 2 12 -14 -3 -14 -1 -18 6 -13 26 16 39
12 22 -8 -10 -10 -21 -16 -26 -14 -4 3 -10 1 -13 -4 -3 -5 10 -8 28 -6 25 1
33 -2 29 -12 -3 -7 -8 -11 -12 -9 -4 3 -7 -5 -7 -16 0 -20 0 -20 14 1 8 11 19
21 24 21 5 0 -1 -15 -13 -32 l-23 -33 26 23 26 23 6 -24 c3 -13 17 -41 31 -61
14 -21 24 -41 21 -43 -3 -3 1 -12 9 -20 9 -9 13 -24 9 -39 -4 -16 -2 -24 6
-24 9 0 9 -4 -1 -17 -12 -15 -12 -16 5 -10 14 6 17 4 12 -8 -3 -8 -1 -15 4
-15 6 0 10 -6 10 -14 0 -7 7 -29 15 -47 13 -30 14 68 11 906 -3 1020 -1 971
-62 1245 -24 110 -68 266 -225 803 -39 132 -68 244 -67 249 2 6 30 -34 63 -88
32 -55 104 -171 160 -259 56 -88 109 -173 118 -190 15 -28 16 32 17 813 0 814
-1 845 -21 935 -28 129 -86 327 -174 594 -41 125 -75 230 -75 232 0 2 26 -33
58 -78 32 -44 102 -138 157 -208z m4305 -44 c0 -6 -4 -7 -10 -4 -5 3 -10 11
-10 16 0 6 5 7 10 4 6 -3 10 -11 10 -16z m137 -49 c2 -24 -3 -25 -23 -6 -12
13 -12 15 4 19 9 3 17 5 17 6 1 0 1 -8 2 -19z m47 -26 c3 -8 2 -12 -4 -9 -6 3
-10 10 -10 16 0 14 7 11 14 -7z m816 -568 c0 -14 -29 -30 -38 -21 -3 3 0 5 7
5 8 0 11 7 7 15 -3 9 0 15 9 15 8 0 15 -6 15 -14z m30 -7 c0 -5 -4 -9 -10 -9
-5 0 -10 7 -10 16 0 8 5 12 10 9 6 -3 10 -10 10 -16z m-10 -23 c0 -3 -4 -8
-10 -11 -5 -3 -10 -1 -10 4 0 6 5 11 10 11 6 0 10 -2 10 -4z m20 -26 c0 -5 -4
-10 -10 -10 -5 0 -10 5 -10 10 0 6 5 10 10 10 6 0 10 -4 10 -10z m-25 -14 c8
-7 11 -16 8 -19 -5 -6 -33 17 -33 27 0 10 11 7 25 -8z m75 -20 c0 -3 -4 -8
-10 -11 -5 -3 -10 -1 -10 4 0 6 5 11 10 11 6 0 10 -2 10 -4z m-45 -64 c-6 -6
-45 33 -45 44 0 4 11 -3 25 -16 14 -13 23 -26 20 -28z m89 15 c3 3 6 -2 6 -12
0 -17 -3 -16 -25 5 -14 13 -25 28 -25 33 0 6 8 0 19 -11 10 -12 21 -19 25 -15z
m-24 -30 c0 -2 -7 -4 -15 -4 -8 0 -15 9 -15 19 0 17 2 18 15 4 8 -8 15 -16 15
-19z m-85 -7 c3 -5 1 -10 -4 -10 -6 0 -11 5 -11 10 0 6 2 10 4 10 3 0 8 -4 11
-10z m92 -25 c23 -24 11 -26 -17 -5 -14 11 -19 20 -12 20 7 0 20 -7 29 -15z
m-17 -25 c0 -5 -2 -10 -4 -10 -3 0 -8 5 -11 10 -3 6 -1 10 4 10 6 0 11 -4 11
-10z m88 -55 c0 -13 -4 -22 -9 -20 -9 6 -8 45 2 45 4 0 7 -11 7 -25z m-53 5
c3 -5 1 -10 -4 -10 -6 0 -11 5 -11 10 0 6 2 10 4 10 3 0 8 -4 11 -10z m85 -41
c0 -6 -4 -7 -10 -4 -5 3 -10 11 -10 16 0 6 5 7 10 4 6 -3 10 -11 10 -16z m-9
-21 c17 -7 33 -48 18 -48 -5 0 -9 7 -9 15 0 8 -9 19 -20 25 -11 6 -20 16 -20
23 0 8 3 9 8 1 4 -6 14 -13 23 -16z m-66 2 c3 -5 1 -10 -4 -10 -6 0 -11 5 -11
10 0 6 2 10 4 10 3 0 8 -4 11 -10z m30 -20 c3 -5 1 -10 -4 -10 -6 0 -11 5 -11
10 0 6 2 10 4 10 3 0 8 -4 11 -10z m33 -25 c-3 -3 -9 2 -12 12 -6 14 -5 15 5
6 7 -7 10 -15 7 -18z m-54 6 c4 -5 -3 -7 -14 -4 -23 6 -26 13 -6 13 8 0 17 -4
20 -9z m31 -11 c3 -5 1 -10 -4 -10 -6 0 -11 5 -11 10 0 6 2 10 4 10 3 0 8 -4
11 -10z m127 -31 c15 -36 15 -43 3 -55 -12 -13 -16 -11 -30 16 -8 16 -16 33
-16 37 0 5 -5 14 -11 21 -7 8 -7 12 1 12 6 0 13 -11 17 -25 3 -14 11 -25 16
-25 6 0 7 7 4 15 -3 8 -9 22 -12 30 -3 8 -2 15 2 15 5 0 17 -19 26 -41z m-82
-21 c0 -4 -4 -8 -10 -8 -5 0 -10 4 -10 9 0 5 -3 18 -6 28 -5 16 -4 16 10 -1 9
-11 16 -23 16 -28z m-36 6 c9 -23 4 -24 -16 -2 -14 14 -15 18 -4 18 8 0 17 -7
20 -16z m71 -23 c-3 -5 -1 -12 5 -16 5 -3 10 -11 10 -17 0 -6 -3 -8 -6 -5 -4
3 -15 2 -25 -4 -13 -6 -19 -6 -19 1 0 5 7 10 16 10 11 0 14 6 9 20 -4 12 -2
20 5 20 6 0 9 -4 5 -9z m-50 -51 c3 -5 1 -10 -4 -10 -6 0 -11 5 -11 10 0 6 2
10 4 10 3 0 8 -4 11 -10z m109 -6 c9 -24 7 -31 -5 -12 -5 10 -17 15 -27 12
-14 -5 -15 -4 -2 5 20 15 27 14 34 -5z m52 -17 c24 -30 46 -67 38 -67 -9 0
-34 28 -34 39 0 6 -9 16 -20 23 -11 7 -20 16 -20 20 0 15 17 8 36 -15z m-76
-7 c-8 -5 -19 -10 -25 -10 -5 0 -3 5 5 10 8 5 20 10 25 10 6 0 3 -5 -5 -10z
m61 -57 l-10 -28 3 33 c3 17 0 32 -5 32 -5 0 -9 5 -9 12 0 8 6 7 16 -4 13 -13
14 -21 5 -45z m-41 37 c0 -5 -5 -10 -11 -10 -5 0 -7 5 -4 10 3 6 8 10 11 10 2
0 4 -4 4 -10z m70 -40 c0 -5 -4 -10 -10 -10 -5 0 -10 5 -10 10 0 6 5 10 10 10
6 0 10 -4 10 -10z m20 -35 c0 -14 -4 -25 -9 -25 -4 0 -6 11 -3 25 2 14 6 25 8
25 2 0 4 -11 4 -25z m-20 5 c0 -5 -4 -10 -10 -10 -5 0 -10 5 -10 10 0 6 5 10
10 10 6 0 10 -4 10 -10z m-30 -10 c0 -5 -4 -10 -10 -10 -5 0 -10 5 -10 10 0 6
5 10 10 10 6 0 10 -4 10 -10z m20 -20 c0 -5 -5 -10 -11 -10 -5 0 -7 5 -4 10 3
6 8 10 11 10 2 0 4 -4 4 -10z m50 -21 c0 -8 -23 -13 -57 -12 -7 1 -13 -3 -13
-9 0 -5 -5 -6 -11 -2 -8 5 -6 10 5 16 9 5 21 6 26 3 6 -3 10 -2 10 2 0 5 9 9
20 10 11 1 20 -2 20 -8z m25 -19 c3 -5 -1 -10 -9 -10 -9 0 -16 5 -16 10 0 6 4
10 9 10 6 0 13 -4 16 -10z m-35 -10 c0 -5 -4 -10 -10 -10 -5 0 -10 5 -10 10 0
6 5 10 10 10 6 0 10 -4 10 -10z m-35 -10 c3 -5 1 -10 -4 -10 -6 0 -11 5 -11
10 0 6 2 10 4 10 3 0 8 -4 11 -10z m71 -22 c3 -12 12 -28 19 -34 18 -18 7 -60
-16 -61 -10 -1 -19 2 -19 8 0 5 7 9 16 9 10 0 14 7 12 23 -3 23 -27 30 -40 12
-5 -6 -8 -3 -8 8 0 9 7 17 15 17 8 0 15 5 15 11 0 6 -7 9 -15 6 -8 -4 -17 -2
-20 3 -5 7 9 17 27 19 4 1 10 -9 14 -21z m-96 -18 c0 -5 -2 -10 -4 -10 -3 0
-8 5 -11 10 -3 6 -1 10 4 10 6 0 11 -4 11 -10z m45 -20 c3 -5 1 -10 -4 -10 -6
0 -11 5 -11 10 0 6 2 10 4 10 3 0 8 -4 11 -10z m-45 -10 c0 -5 -2 -10 -4 -10
-3 0 -8 5 -11 10 -3 6 -1 10 4 10 6 0 11 -4 11 -10z m70 -50 c0 -5 -2 -10 -4
-10 -3 0 -8 5 -11 10 -3 6 -1 10 4 10 6 0 11 -4 11 -10z m90 -39 c0 -4 -6 -8
-12 -9 -7 0 -26 -3 -43 -6 -29 -6 -29 -5 -7 7 25 15 62 19 62 8z m-90 -21 c0
-5 -4 -10 -10 -10 -5 0 -10 5 -10 10 0 6 5 10 10 10 6 0 10 -4 10 -10z m64
-41 c25 -42 16 -45 -12 -3 -12 19 -19 34 -14 34 4 0 16 -14 26 -31z m-77 -66
c-3 -3 -13 1 -21 10 -8 8 -12 17 -9 20 3 3 12 -1 20 -9 9 -8 13 -18 10 -21z
m123 7 c-19 -12 -30 -12 -30 -1 0 10 31 20 40 14 2 -2 -2 -8 -10 -13z m-150
-10 c0 -5 -2 -10 -4 -10 -3 0 -8 5 -11 10 -3 6 -1 10 4 10 6 0 11 -4 11 -10z
m110 6 c0 -11 -19 -15 -25 -6 -3 5 1 10 9 10 9 0 16 -2 16 -4z m20 -26 c0 -5
-4 -10 -10 -10 -5 0 -10 5 -10 10 0 6 5 10 10 10 6 0 10 -4 10 -10z m-35 -10
c3 -5 1 -10 -4 -10 -6 0 -11 5 -11 10 0 6 2 10 4 10 3 0 8 -4 11 -10z m81 -47
c21 -28 16 -41 -5 -15 -13 15 -21 18 -24 10 -2 -7 -8 -9 -13 -5 -5 4 -2 12 6
17 20 13 21 13 36 -7z m-176 -13 c0 -5 -2 -10 -4 -10 -3 0 -8 5 -11 10 -3 6
-1 10 4 10 6 0 11 -4 11 -10z m100 0 c0 -5 -2 -10 -4 -10 -3 0 -8 5 -11 10 -3
6 -1 10 4 10 6 0 11 -4 11 -10z m90 -53 c0 -5 -4 -5 -10 -2 -6 3 -7 -1 -4 -9
3 -9 1 -16 -5 -16 -6 0 -8 -6 -5 -14 4 -11 -5 -17 -30 -21 -20 -4 -33 -11 -31
-16 3 -4 11 -6 18 -3 8 3 13 -4 13 -16 0 -11 -4 -20 -9 -20 -4 0 -6 -4 -2 -10
3 -5 12 -7 20 -3 8 3 15 1 15 -4 0 -14 -33 -12 -47 3 -10 9 -10 13 -1 16 7 3
8 10 4 17 -7 11 -10 11 -16 0 -7 -10 -11 -10 -24 0 -9 8 -16 19 -16 25 0 6 5
3 11 -7 6 -9 15 -15 20 -12 5 4 7 11 4 16 -4 5 6 14 22 20 33 12 44 28 37 52
-3 9 0 17 6 17 6 0 8 5 5 10 -4 7 -13 6 -27 -1 -16 -9 -19 -8 -15 3 2 7 10 12
16 11 6 -2 11 3 11 10 0 13 39 -32 40 -46z m-80 13 c0 -5 6 -10 14 -10 17 0
29 -27 15 -36 -6 -3 -13 -3 -16 0 -4 3 -1 6 6 6 7 0 9 5 6 10 -4 6 -16 8 -28
5 -12 -2 -16 -2 -9 1 10 5 10 9 1 20 -8 10 -8 14 0 14 6 0 11 -4 11 -10z m-40
-50 c8 -5 11 -12 8 -16 -4 -3 -14 1 -23 10 -18 17 -9 21 15 6z m147 -32 c-3
-8 -6 -5 -6 6 -1 11 2 17 5 13 3 -3 4 -12 1 -19z m-54 -28 c-7 -28 -13 -25
-13 6 0 14 4 23 9 20 5 -3 7 -15 4 -26z m-79 -26 c15 -14 26 -27 24 -29 -2 -3
-19 9 -37 25 -39 36 -28 40 13 4z m30 -103 c-4 -5 -43 41 -44 52 0 4 11 -5 24
-20 13 -15 23 -30 20 -32z m0 43 c5 -14 4 -15 -9 -4 -17 14 -19 20 -6 20 5 0
12 -7 15 -16z m56 -54 c0 -5 -2 -10 -4 -10 -3 0 -8 5 -11 10 -3 6 -1 10 4 10
6 0 11 -4 11 -10z m20 -20 c0 -5 -10 -10 -22 -9 -22 0 -22 1 -3 9 11 5 21 9
23 9 1 1 2 -3 2 -9z m-55 -10 c3 -5 1 -10 -4 -10 -6 0 -11 5 -11 10 0 6 2 10
4 10 3 0 8 -4 11 -10z m75 -10 c0 -5 -3 -10 -7 -11 -5 0 -18 -2 -30 -5 -13 -2
-23 1 -23 7 0 5 4 8 8 5 4 -2 14 -1 22 5 20 12 30 11 30 -1z m-7035 -24 c0
-15 -4 -21 -9 -16 -5 5 -6 16 -3 24 9 22 12 20 12 -8z m6980 -16 c3 -5 1 -10
-4 -10 -6 0 -11 5 -11 10 0 6 2 10 4 10 3 0 8 -4 11 -10z m-30 -10 c3 -5 1
-10 -4 -10 -6 0 -11 5 -11 10 0 6 2 10 4 10 3 0 8 -4 11 -10z m-25 -10 c0 -5
-2 -10 -4 -10 -3 0 -8 5 -11 10 -3 6 -1 10 4 10 6 0 11 -4 11 -10z m100 0 c0
-5 -5 -10 -11 -10 -5 0 -8 -4 -5 -8 2 -4 1 -14 -3 -21 -6 -9 -11 -10 -15 -2
-4 6 -2 11 5 11 9 0 9 3 0 14 -9 11 -9 15 1 19 21 9 28 8 28 -3z m30 -20 c0
-5 -7 -10 -15 -10 -8 0 -15 5 -15 10 0 6 7 10 15 10 8 0 15 -4 15 -10z m-130
-4 c0 -3 -4 -8 -10 -11 -5 -3 -10 -1 -10 4 0 6 5 11 10 11 6 0 10 -2 10 -4z
m61 -33 c13 -17 13 -17 -6 -3 -11 8 -22 16 -24 17 -2 2 0 3 6 3 6 0 17 -8 24
-17z m-1 -33 c0 -5 -5 -10 -11 -10 -5 0 -7 5 -4 10 3 6 8 10 11 10 2 0 4 -4 4
-10z m-30 -34 c0 -3 -4 -8 -10 -11 -5 -3 -10 -1 -10 4 0 6 5 11 10 11 6 0 10
-2 10 -4z m-50 -31 c7 -9 8 -15 2 -15 -5 0 -12 7 -16 15 -3 8 -4 15 -2 15 2 0
9 -7 16 -15z m50 -45 c0 -5 -5 -10 -11 -10 -5 0 -7 5 -4 10 3 6 8 10 11 10 2
0 4 -4 4 -10z m-20 -35 c0 -5 -5 -3 -10 5 -5 8 -10 20 -10 25 0 6 5 3 10 -5 5
-8 10 -19 10 -25z m-10 -28 c0 -4 -6 -2 -14 5 -8 7 -12 17 -9 22 5 8 23 -12
23 -27z m100 -12 c0 -5 -5 -3 -10 5 -5 8 -10 20 -10 25 0 6 5 3 10 -5 5 -8 10
-19 10 -25z m-42 -39 c14 5 15 4 2 -5 -22 -15 -25 -14 -38 14 -17 37 -14 45 4
13 10 -19 20 -26 32 -22z m-55 0 c-3 -4 -9 -2 -14 5 -13 22 -11 31 5 17 8 -7
12 -17 9 -22z m17 -16 c0 -5 -5 -10 -11 -10 -5 0 -7 5 -4 10 3 6 8 10 11 10 2
0 4 -4 4 -10z m-31 -154 c-3 -3 -11 5 -18 17 -13 21 -12 21 5 5 10 -10 16 -20
13 -22z m-29 -36 c0 -5 -2 -10 -4 -10 -3 0 -8 5 -11 10 -3 6 -1 10 4 10 6 0
11 -4 11 -10z m30 -20 c-8 -5 -19 -10 -25 -10 -5 0 -3 5 5 10 8 5 20 10 25 10
6 0 3 -5 -5 -10z m-10 -30 c-8 -5 -19 -10 -25 -10 -5 0 -3 5 5 10 8 5 20 10
25 10 6 0 3 -5 -5 -10z m25 -20 c3 -5 1 -10 -4 -10 -6 0 -11 5 -11 10 0 6 2
10 4 10 3 0 8 -4 11 -10z m-45 -70 c0 -5 -5 -10 -11 -10 -5 0 -7 5 -4 10 3 6
8 10 11 10 2 0 4 -4 4 -10z m0 -90 c0 -5 -5 -10 -11 -10 -5 0 -7 5 -4 10 3 6
8 10 11 10 2 0 4 -4 4 -10z m-30 -94 c0 -3 -4 -8 -10 -11 -5 -3 -10 -1 -10 4
0 6 5 11 10 11 6 0 10 -2 10 -4z m-6549 -133 c-12 -20 -14 -14 -5 12 4 9 9 14
11 11 3 -2 0 -13 -6 -23z m2585 -230 l64 -171 -1 -264 0 -263 -18 55 c-23 71
-89 234 -135 332 -20 44 -31 80 -26 83 6 4 10 57 10 118 0 62 3 170 7 242 l6
130 15 -45 c8 -25 43 -122 78 -217z m1405 92 c1 -88 5 -200 9 -248 8 -87 7
-90 -26 -162 -42 -91 -90 -216 -120 -315 l-23 -75 -1 260 0 260 77 222 c43
121 79 220 80 219 1 -1 3 -74 4 -161z m2459 81 c0 -3 -4 -8 -10 -11 -5 -3 -10
-1 -10 4 0 6 5 11 10 11 6 0 10 -2 10 -4z m-3503 -676 c30 -106 153 -433 198
-527 l44 -94 6 -547 c5 -510 7 -591 21 -777 6 -84 23 -217 28 -222 2 -2 6 27
10 64 4 37 8 82 11 98 19 160 26 340 29 820 l3 560 33 65 c51 100 106 252 249
683 73 218 134 397 135 397 1 0 0 -223 -2 -495 -3 -272 -2 -495 1 -495 8 0
249 153 326 207 35 24 65 43 66 41 1 -2 -33 -50 -77 -108 -129 -170 -263 -360
-347 -495 -88 -139 -81 -115 -121 -430 -12 -93 -36 -287 -55 -430 -18 -143
-47 -370 -64 -505 -38 -300 -60 -466 -106 -810 -29 -224 -83 -712 -86 -784 -2
-57 -16 43 -119 859 -21 171 -50 389 -64 485 -14 96 -46 342 -71 545 -25 204
-57 450 -70 548 -14 98 -30 221 -35 273 -6 52 -17 109 -27 127 -37 72 -194
312 -308 472 -152 213 -188 265 -180 265 3 0 29 -17 58 -38 68 -50 325 -222
332 -222 3 0 5 226 6 503 l1 502 79 -240 c44 -132 87 -265 96 -295z m-2454
-296 c-9 -4 -9 -11 -1 -29 6 -14 14 -22 19 -20 4 3 11 0 15 -6 4 -8 3 -9 -4
-5 -7 4 -12 3 -12 -3 0 -5 6 -11 13 -14 6 -2 9 -8 4 -12 -4 -5 -14 0 -22 11
-8 10 -15 15 -15 9 0 -5 -6 1 -14 15 -14 27 -5 61 17 59 9 0 9 -2 0 -5z m61
-116 c-4 -6 -10 -5 -15 3 -7 11 -9 11 -9 1 0 -7 -5 -10 -11 -6 -8 4 -7 9 2 14
16 10 41 1 33 -12z m4450 -1906 c-177 -260 -470 -668 -657 -917 -665 -880
-705 -928 -849 -1000 -223 -111 -462 -74 -647 99 -136 129 -891 1137 -1412
1886 l-80 115 3 109 c2 72 7 111 15 113 7 3 9 -4 6 -18 -6 -20 -4 -22 28 -15
l34 6 -30 -21 c-16 -12 -22 -18 -12 -15 24 8 48 -15 36 -36 -5 -10 -4 -15 6
-15 8 0 12 4 9 9 -3 4 0 8 5 8 18 0 12 -17 -11 -34 -22 -15 -21 -16 10 -1 35
17 41 11 17 -15 -15 -16 -14 -17 12 -13 27 5 27 5 8 -10 -19 -15 -19 -16 8
-13 33 4 33 3 5 -25 l-23 -21 22 11 c19 9 24 8 33 -9 6 -11 15 -18 20 -15 5 3
11 1 15 -5 6 -9 -8 -15 -29 -11 -5 1 -4 -5 4 -13 15 -19 34 -21 25 -3 -4 6 2
1 13 -13 14 -16 17 -28 11 -36 -6 -8 -4 -14 6 -18 9 -3 13 -2 10 4 -14 23 4 8
20 -16 9 -15 12 -23 5 -19 -8 5 -11 3 -8 -6 3 -8 11 -14 19 -14 9 0 13 -9 11
-23 -3 -23 13 -31 21 -9 2 6 7 9 11 5 4 -3 2 -16 -4 -28 -7 -13 -8 -20 -2 -16
7 4 9 -7 8 -29 -3 -29 -1 -33 11 -23 11 9 11 13 1 19 -7 4 -9 11 -5 15 4 4 16
-2 27 -14 19 -20 18 -27 -3 -23 -5 1 -6 -3 -2 -8 3 -6 12 -8 19 -5 8 3 17 1
21 -5 3 -6 0 -9 -8 -5 -8 3 -18 1 -22 -5 -3 -6 1 -11 10 -11 9 0 13 -4 10 -10
-3 -5 1 -10 10 -10 10 0 14 5 10 13 -4 6 3 1 14 -13 24 -29 26 -41 9 -59 -7
-8 -1 -6 14 3 26 17 26 17 21 -3 -3 -12 -10 -21 -15 -21 -5 0 -6 -5 -2 -11 5
-8 10 -6 16 5 5 9 14 16 21 16 7 0 6 -4 -3 -10 -12 -8 -13 -12 -2 -19 8 -4 12
-14 11 -22 -3 -19 11 -49 23 -49 5 0 7 4 4 9 -3 5 2 15 12 22 15 13 16 12 4
-3 -9 -11 -10 -18 -2 -23 5 -3 10 -12 10 -18 0 -7 -4 -6 -10 3 -5 8 -10 11
-10 5 0 -5 5 -17 11 -25 8 -11 12 -12 15 -3 4 10 8 10 19 0 9 -8 10 -18 4 -29
-12 -23 0 -23 17 0 12 16 13 15 8 -5 -4 -13 -1 -23 8 -26 7 -2 3 -2 -9 -1 -12
2 -25 0 -28 -6 -3 -6 1 -7 9 -4 9 3 16 1 16 -5 0 -6 8 -8 18 -4 15 6 15 5 3
-10 -16 -20 -12 -21 26 -7 27 9 27 9 6 -6 -19 -13 -20 -19 -11 -40 8 -16 17
-23 28 -19 11 3 20 -1 24 -11 5 -13 1 -15 -21 -10 -24 5 -25 5 -10 -5 10 -6
28 -9 38 -6 17 5 18 3 7 -10 -12 -15 -11 -15 10 -4 22 12 22 11 10 -9 -7 -11
-19 -18 -26 -15 -7 3 -10 1 -7 -4 3 -5 -3 -12 -12 -14 -15 -4 -14 -5 3 -6 11
0 31 9 44 21 17 16 22 18 18 6 -4 -10 -1 -19 8 -22 9 -3 12 -10 9 -16 -3 -5
-2 -10 4 -10 14 0 39 -52 33 -69 -3 -9 0 -11 8 -6 10 6 12 1 7 -23 -5 -23 -2
-32 11 -37 14 -5 14 -7 2 -15 -8 -6 -10 -10 -4 -10 19 0 23 12 11 31 -16 26
-1 36 23 14 20 -19 28 -41 10 -30 -15 9 -12 -4 5 -21 8 -9 20 -12 27 -8 7 5 9
2 6 -7 -6 -16 16 -42 26 -31 4 3 4 -2 0 -11 -4 -10 -12 -16 -19 -14 -6 3 -12
0 -12 -7 0 -7 6 -13 14 -13 7 0 13 4 13 9 0 4 4 8 8 8 11 0 43 -68 34 -73 -4
-2 -2 -3 4 -1 16 4 61 -49 56 -64 -5 -15 16 -42 32 -42 6 0 2 7 -8 15 -11 8
-17 17 -14 21 3 3 17 -6 31 -20 14 -14 21 -28 16 -31 -5 -4 -9 -1 -9 5 0 6 -5
8 -11 4 -16 -10 10 -24 30 -16 14 5 14 3 2 -11 -12 -15 -11 -17 5 -18 11 -1
23 -1 27 0 4 1 2 -9 -4 -21 -12 -22 -11 -22 6 -8 17 14 18 14 5 -10 -12 -22
-11 -23 2 -13 12 10 18 10 33 -1 14 -10 15 -15 5 -21 -8 -5 -11 -4 -7 2 4 6 0
14 -9 17 -12 5 -14 1 -9 -17 5 -17 4 -18 -4 -7 -5 8 -14 11 -18 6 -4 -5 -2
-11 5 -13 20 -8 52 -45 46 -55 -3 -5 -2 -8 3 -7 20 3 25 -2 14 -15 -9 -11 -9
-16 0 -22 7 -4 19 3 30 17 15 19 19 20 19 7 0 -9 6 -19 13 -21 6 -3 2 -6 -11
-6 -13 -1 -21 -5 -18 -10 3 -5 20 -7 38 -5 l33 2 -30 -13 c-16 -8 -25 -14 -18
-15 6 0 9 -10 6 -22 -4 -20 -2 -19 12 5 8 15 21 27 28 27 8 0 6 -4 -3 -10 -13
-8 -12 -10 4 -10 20 0 20 0 0 -15 -12 -9 -14 -14 -6 -15 7 0 10 -5 6 -12 -4
-7 -3 -8 5 -4 6 4 9 12 6 17 -4 5 -1 9 4 9 6 0 11 -10 11 -22 0 -19 2 -20 10
-8 8 13 10 13 10 -1 0 -9 7 -19 15 -23 8 -3 15 -15 15 -26 0 -12 -3 -19 -7
-17 -5 3 -14 -2 -22 -10 -12 -13 -11 -14 9 -8 15 5 20 4 16 -4 -11 -17 0 -13
15 6 9 11 10 14 2 9 -9 -5 -11 -2 -7 9 8 19 14 14 18 -12 2 -10 8 -18 14 -18
6 0 17 -6 24 -12 9 -10 9 -13 0 -13 -7 0 -12 -5 -12 -11 0 -5 6 -7 13 -3 6 4
4 -1 -5 -12 -16 -19 -16 -20 3 -32 11 -7 17 -18 13 -24 -5 -7 -3 -8 5 -4 9 6
8 12 -4 26 -11 12 -13 20 -5 25 6 3 9 3 8 -2 -3 -9 31 -64 46 -75 6 -4 14 -4
20 -1 5 3 6 1 2 -5 -12 -20 -16 -53 -5 -47 5 4 7 12 3 18 -3 7 3 1 14 -13 15
-18 17 -27 9 -32 -9 -6 -9 -8 1 -8 7 0 15 6 18 14 3 8 12 17 20 20 12 4 12 2
4 -14 -9 -16 -8 -18 5 -14 11 5 15 0 15 -17 0 -18 3 -20 9 -10 6 10 17 11 37
6 16 -5 33 -7 37 -6 5 1 6 -3 2 -9 -3 -5 -1 -10 4 -10 6 0 11 -10 11 -22 1
-21 2 -21 11 -5 5 9 8 21 4 26 -3 5 0 13 6 17 8 5 10 -1 7 -20 -3 -14 -1 -26
3 -26 5 0 9 5 9 12 0 6 8 2 18 -9 15 -18 19 -19 31 -6 7 8 16 11 20 6 3 -4 15
-15 26 -23 19 -14 19 -14 6 3 -20 26 -8 30 22 7 23 -18 25 -18 20 -2 -3 15 2
18 29 18 21 0 32 4 30 12 -1 8 7 7 24 -5 26 -17 26 -17 20 4 -4 12 -2 24 3 28
7 3 8 0 5 -9 -4 -11 0 -16 11 -16 11 0 15 5 11 15 -5 13 -2 14 15 4 12 -6 19
-7 16 -2 -3 5 -2 15 3 23 7 11 11 12 24 0 14 -11 16 -10 10 5 -5 13 -4 16 4
11 7 -4 12 -2 12 3 0 6 7 11 16 11 14 0 14 -3 4 -15 -7 -9 -11 -18 -8 -21 3
-2 12 8 19 23 14 28 39 42 39 23 0 -5 5 -10 11 -10 6 0 7 5 2 13 -4 6 -9 21
-10 32 -3 16 -1 17 7 5 7 -11 10 -11 10 -2 0 8 5 10 12 6 8 -5 9 -2 4 11 -5
15 -4 16 9 5 13 -11 14 -10 8 6 -6 16 -4 17 8 7 13 -10 16 -10 16 2 0 8 -5 15
-10 15 -6 0 6 15 26 33 20 18 37 38 37 45 0 6 4 12 9 12 5 0 13 9 16 21 10 30
64 89 84 90 12 0 12 2 -4 9 -18 8 -18 9 5 9 15 1 20 4 13 9 -8 5 -6 13 7 29 9
12 21 19 24 16 4 -4 9 3 13 15 3 12 9 19 14 16 5 -3 9 2 9 10 0 9 4 16 10 16
5 0 7 7 4 15 -5 12 -2 14 12 8 16 -6 17 -5 6 9 -9 11 -10 18 -2 23 5 3 10 1
10 -5 0 -6 5 -8 11 -4 6 3 9 15 6 25 -3 10 0 17 7 16 6 -1 10 5 10 14 -1 9 6
16 15 15 9 -1 15 6 15 16 -1 10 1 16 5 13 12 -7 36 28 35 51 -1 16 4 20 23 18
18 -2 23 1 19 13 -4 9 1 17 14 20 11 3 20 12 20 19 0 8 6 14 13 15 8 0 8 2 1
5 -16 7 -5 44 12 44 8 0 14 5 14 10 0 6 9 10 20 10 14 0 18 5 13 17 -4 11 -3
14 5 9 8 -5 10 -1 5 10 -5 13 -3 16 10 11 12 -4 14 -2 10 10 -5 13 -2 15 13 9
14 -5 16 -4 7 4 -8 9 -7 17 5 31 8 10 20 15 25 12 6 -3 7 -1 3 5 -4 7 1 21 12
32 10 11 25 33 32 48 8 15 23 35 35 45 11 10 14 16 8 12 -20 -10 -15 0 9 21
12 10 18 13 13 5 -5 -10 -4 -12 4 -7 6 4 9 12 5 17 -3 6 6 21 21 35 14 13 23
29 20 34 -4 6 -1 9 7 8 7 -2 12 5 12 15 -1 9 5 17 14 17 8 0 13 3 9 6 -3 3 5
18 18 32 18 19 21 28 12 34 -7 4 -8 8 -3 8 5 0 19 -8 30 -17 20 -17 20 -17 7
0 -7 9 -10 17 -6 17 4 0 2 6 -4 14 -14 16 9 29 35 19 13 -5 15 -2 9 18 -4 13
-13 28 -19 32 -7 6 -5 7 6 4 19 -7 42 15 30 29 -4 4 1 2 11 -6 10 -7 17 -9 16
-4 -4 22 2 34 17 34 14 0 14 3 4 15 -12 14 -7 19 13 16 5 -1 6 3 3 8 -4 5 -2
12 4 16 6 4 8 11 5 16 -6 9 5 12 35 10 10 0 11 1 3 5 -7 3 -13 13 -13 22 0 12
3 13 12 4 7 -7 17 -12 23 -12 5 0 3 5 -5 10 -13 9 -12 12 4 25 10 8 22 12 26
10 10 -6 8 28 -3 43 -6 8 -6 12 2 12 6 0 11 -5 11 -11 0 -5 5 -7 10 -4 6 4 8
11 5 16 -4 5 -1 9 4 9 6 0 11 -5 11 -12 0 -6 3 -8 6 -5 4 4 1 14 -7 24 -12 15
-12 16 2 11 13 -5 16 -2 11 14 -4 17 -2 19 19 13 17 -4 20 -4 10 3 -12 9 -12
13 2 27 10 9 17 21 17 26 0 6 4 7 10 4 6 -3 7 1 4 9 -4 10 -1 16 10 16 10 0
13 5 9 17 -5 13 -2 15 11 10 14 -6 16 -3 11 13 -4 14 -2 20 9 20 8 0 18 5 22
12 5 8 1 9 -12 5 -18 -7 -18 -6 -2 6 10 8 15 17 11 20 -3 4 2 7 11 7 13 0 16
5 12 17 -4 10 -4 14 0 11 3 -4 13 -1 20 7 17 17 18 28 2 20 -7 -4 -1 3 15 15
15 12 27 28 27 36 0 8 7 14 16 14 8 0 12 5 9 10 -3 6 1 10 9 10 10 0 13 6 10
15 -4 10 0 15 10 15 14 0 15 4 5 23 -6 12 -8 19 -4 15 4 -4 21 9 36 29 27 34
33 47 30 66 -1 5 3 6 9 2 5 -3 11 0 12 7 1 7 4 -49 5 -125 l4 -138 -127 -187z
m-3120 -297 c-4 -8 -11 -15 -16 -15 -6 0 -5 6 2 15 7 8 14 15 16 15 2 0 1 -7
-2 -15z m140 -211 c10 -25 -1 -29 -14 -5 -6 12 -7 21 -1 21 5 0 12 -7 15 -16z
m547 -715 c8 -17 8 -20 -1 -14 -8 5 -11 3 -8 -6 3 -8 11 -13 17 -11 17 3 13
-24 -6 -39 -15 -11 -16 -11 -6 0 9 11 7 21 -13 46 -23 31 -23 35 3 44 1 1 7
-9 14 -20z m364 -469 c-3 -5 -11 -10 -16 -10 -6 0 -7 5 -4 10 3 6 11 10 16 10
6 0 7 -4 4 -10z"/>
<path d="M6305 9190 c3 -5 12 -7 20 -3 21 7 19 13 -6 13 -11 0 -18 -4 -14 -10z"/>
<path d="M6351 9193 c-1 -17 16 -25 25 -12 4 7 3 9 -4 5 -5 -3 -13 0 -15 6 -4
9 -6 10 -6 1z"/>
<path d="M6730 9110 c0 -5 5 -10 11 -10 5 0 7 5 4 10 -3 6 -8 10 -11 10 -2 0
-4 -4 -4 -10z"/>
<path d="M6840 9080 c0 -5 5 -10 10 -10 6 0 10 5 10 10 0 6 -4 10 -10 10 -5 0
-10 -4 -10 -10z"/>
<path d="M7037 9014 c6 -16 19 -18 27 -5 3 5 -3 11 -13 14 -14 3 -18 1 -14 -9z"/>
<path d="M7780 8630 c0 -5 5 -10 10 -10 6 0 10 5 10 10 0 6 -4 10 -10 10 -5 0
-10 -4 -10 -10z"/>
<path d="M7772 8598 c2 -6 10 -14 16 -16 7 -2 10 2 6 12 -7 18 -28 22 -22 4z"/>
<path d="M7914 8474 c9 -33 13 -40 22 -31 4 4 2 13 -4 20 -7 8 -9 16 -6 19 3
3 0 9 -7 13 -9 6 -10 1 -5 -21z"/>
<path d="M7944 8477 c3 -10 6 -24 6 -30 0 -8 4 -7 12 1 10 10 8 16 -6 30 -18
16 -19 16 -12 -1z"/>
<path d="M8038 8403 c7 -3 16 -2 19 1 4 3 -2 6 -13 5 -11 0 -14 -3 -6 -6z"/>
<path d="M8090 8319 c0 -5 5 -7 10 -4 6 3 10 8 10 11 0 2 -4 4 -10 4 -5 0 -10
-5 -10 -11z"/>
<path d="M8130 8268 c0 -4 5 -10 10 -13 6 -3 10 -1 10 5 0 7 7 10 15 6 8 -3
15 -1 15 4 0 5 -11 9 -25 8 -14 -1 -25 -6 -25 -10z"/>
<path d="M8160 8240 c0 -5 5 -10 11 -10 5 0 7 5 4 10 -3 6 -8 10 -11 10 -2 0
-4 -4 -4 -10z"/>
<path d="M8210 8209 c0 -11 -4 -18 -9 -14 -5 3 -13 0 -16 -6 -5 -7 -1 -10 10
-7 19 3 42 48 25 48 -6 0 -10 -9 -10 -21z"/>
<path d="M8205 8130 c3 -5 8 -10 11 -10 2 0 4 5 4 10 0 6 -5 10 -11 10 -5 0
-7 -4 -4 -10z"/>
<path d="M8255 8121 c-3 -5 -1 -12 5 -16 5 -3 10 1 10 9 0 18 -6 21 -15 7z"/>
<path d="M8312 8076 c7 -8 15 -12 17 -11 5 6 -10 25 -20 25 -5 0 -4 -6 3 -14z"/>
<path d="M8290 8061 c0 -5 5 -13 10 -16 6 -3 10 -2 10 4 0 5 -4 13 -10 16 -5
3 -10 2 -10 -4z"/>
<path d="M8270 8042 c0 -12 19 -26 26 -19 2 2 -2 10 -11 17 -9 8 -15 8 -15 2z"/>
<path d="M8343 8024 c-6 -13 -7 -24 -3 -24 9 0 25 39 18 45 -2 2 -8 -7 -15
-21z"/>
<path d="M8372 7938 c2 -6 10 -13 16 -14 7 -1 8 0 2 3 -5 2 -8 9 -4 14 3 5 0
9 -6 9 -7 0 -10 -5 -8 -12z"/>
<path d="M8415 7930 c3 -5 8 -10 11 -10 2 0 4 5 4 10 0 6 -5 10 -11 10 -5 0
-7 -4 -4 -10z"/>
<path d="M3130 7408 l0 -505 59 -149 c142 -354 229 -565 236 -572 4 -4 5 2 2
13 -3 11 -9 261 -12 555 l-7 535 -70 170 c-80 194 -187 435 -200 450 -4 5 -8
-218 -8 -497z"/>
<path d="M7056 7827 c-110 -234 -224 -486 -234 -517 -11 -36 -24 -1126 -13
-1115 3 4 15 32 27 63 12 31 74 185 137 341 l116 284 4 514 c3 282 4 513 4
513 -1 0 -19 -37 -41 -83z"/>
<path d="M8420 7880 c0 -5 5 -10 11 -10 5 0 7 5 4 10 -3 6 -8 10 -11 10 -2 0
-4 -4 -4 -10z"/>
<path d="M8452 7846 c7 -8 15 -12 17 -11 5 6 -10 25 -20 25 -5 0 -4 -6 3 -14z"/>
<path d="M8450 7799 c0 -5 5 -7 10 -4 6 3 10 8 10 11 0 2 -4 4 -10 4 -5 0 -10
-5 -10 -11z"/>
<path d="M8490 7766 c0 -4 7 -14 15 -22 8 -9 15 -11 15 -6 0 5 -7 15 -15 22
-8 7 -15 9 -15 6z"/>
<path d="M8446 7722 c-3 -5 1 -9 9 -9 8 0 12 4 9 9 -3 4 -7 8 -9 8 -2 0 -6 -4
-9 -8z"/>
<path d="M8525 7710 c-3 -5 -1 -10 4 -10 6 0 11 5 11 10 0 6 -2 10 -4 10 -3 0
-8 -4 -11 -10z"/>
<path d="M8550 7430 c0 -5 9 -8 20 -7 21 1 18 10 -5 13 -8 1 -15 -2 -15 -6z"/>
<path d="M1547 7387 c-11 -29 -9 -43 4 -30 6 6 9 19 7 29 -3 18 -4 18 -11 1z"/>
<path d="M8590 7380 c-12 -7 -10 -9 8 -7 12 0 22 5 22 9 0 11 -12 10 -30 -2z"/>
<path d="M8582 7351 c-10 -6 -10 -10 3 -21 13 -11 14 -10 9 5 -6 14 -4 16 6
10 9 -5 11 -4 6 3 -8 14 -7 14 -24 3z"/>
<path d="M8635 7306 c10 -14 19 -26 22 -26 7 0 -17 39 -28 46 -6 3 -3 -5 6
-20z"/>
<path d="M1526 7307 c3 -10 9 -15 12 -12 3 3 0 11 -7 18 -10 9 -11 8 -5 -6z"/>
<path d="M8610 7302 c0 -6 5 -14 10 -17 16 -10 12 -25 -7 -26 -10 0 -13 -3 -6
-5 7 -3 19 -2 27 3 12 7 11 12 -5 32 -10 13 -19 18 -19 13z"/>
<path d="M8636 7217 c3 -10 9 -15 12 -12 3 3 0 11 -7 18 -10 9 -11 8 -5 -6z"/>
<path d="M1505 7191 c-3 -5 -2 -12 3 -15 5 -3 9 1 9 9 0 17 -3 19 -12 6z"/>
<path d="M8634 7160 c0 -13 4 -16 10 -10 7 7 7 13 0 20 -6 6 -10 3 -10 -10z"/>
<path d="M1483 7121 c0 -11 5 -18 9 -15 4 3 5 11 1 19 -7 21 -12 19 -10 -4z"/>
<path d="M8628 7013 c7 -3 16 -2 19 1 4 3 -2 6 -13 5 -11 0 -14 -3 -6 -6z"/>
<path d="M8610 6746 c0 -4 7 -14 15 -22 8 -9 15 -11 15 -6 0 5 -7 15 -15 22
-8 7 -15 9 -15 6z"/>
<path d="M8575 6730 c3 -5 8 -10 11 -10 2 0 4 5 4 10 0 6 -5 10 -11 10 -5 0
-7 -4 -4 -10z"/>
<path d="M8600 6712 c0 -4 9 -13 20 -20 19 -12 20 -11 8 8 -13 20 -28 27 -28
12z"/>
<path d="M8590 6682 c0 -5 7 -9 15 -9 8 0 12 4 9 9 -3 4 -9 8 -15 8 -5 0 -9
-4 -9 -8z"/>
<path d="M8560 6670 c0 -5 5 -10 10 -10 6 0 10 5 10 10 0 6 -4 10 -10 10 -5 0
-10 -4 -10 -10z"/>
<path d="M8620 6651 c0 -6 4 -13 10 -16 6 -3 7 1 4 9 -7 18 -14 21 -14 7z"/>
<path d="M1596 6563 c-6 -14 -5 -15 5 -6 7 7 10 15 7 18 -3 3 -9 -2 -12 -12z"/>
<path d="M1620 6469 c0 -5 5 -7 10 -4 6 3 10 8 10 11 0 2 -4 4 -10 4 -5 0 -10
-5 -10 -11z"/>
<path d="M8570 6441 c12 -24 30 -36 30 -22 0 6 -4 11 -10 11 -5 0 -10 7 -10
15 0 8 -5 15 -10 15 -7 0 -7 -6 0 -19z"/>
<path d="M1700 6271 c0 -6 4 -13 10 -16 6 -3 7 1 4 9 -7 18 -14 21 -14 7z"/>
<path d="M1717 6196 c-5 -12 -3 -15 5 -10 8 5 9 1 4 -12 -5 -14 -4 -16 4 -7 8
7 9 17 3 28 -9 16 -10 16 -16 1z"/>
<path d="M1710 6129 c0 -5 5 -7 10 -4 6 3 10 8 10 11 0 2 -4 4 -10 4 -5 0 -10
-5 -10 -11z"/>
<path d="M1737 6094 c-3 -5 1 -15 9 -22 16 -14 18 -5 5 17 -5 7 -11 9 -14 5z"/>
<path d="M1770 6032 c6 -12 8 -28 4 -34 -4 -7 -3 -8 4 -4 16 10 15 18 -4 42
-14 18 -15 18 -4 -4z"/>
<path d="M1820 5945 c0 -5 5 -17 10 -25 5 -8 10 -10 10 -5 0 6 -5 17 -10 25
-5 8 -10 11 -10 5z"/>
<path d="M8280 5695 c0 -8 4 -15 10 -15 5 0 7 7 4 15 -4 8 -8 15 -10 15 -2 0
-4 -7 -4 -15z"/>
<path d="M8232 5580 c0 -14 2 -19 5 -12 2 6 2 18 0 25 -3 6 -5 1 -5 -13z"/>
<path d="M8150 5431 c0 -6 4 -12 8 -15 5 -3 9 1 9 9 0 8 -4 15 -9 15 -4 0 -8
-4 -8 -9z"/>
<path d="M2066 5365 c-3 -9 0 -15 9 -15 9 0 12 6 9 15 -4 8 -7 15 -9 15 -2 0
-5 -7 -9 -15z"/>
<path d="M2113 5278 c1 -7 -4 -12 -11 -10 -8 1 -11 -2 -7 -8 5 -8 12 -7 23 2
13 11 15 11 10 -3 -4 -9 -1 -16 7 -16 10 0 11 5 5 17 -5 10 -6 20 -3 24 3 3
-1 6 -10 6 -9 0 -16 -6 -14 -12z"/>
<path d="M2165 5210 c-3 -5 -1 -10 4 -10 6 0 11 5 11 10 0 6 -2 10 -4 10 -3 0
-8 -4 -11 -10z"/>
<path d="M2150 5160 c-9 -6 -10 -10 -3 -10 6 0 15 5 18 10 8 12 4 12 -15 0z"/>
<path d="M2207 5075 c-8 -8 -18 -11 -22 -7 -5 4 -5 2 -1 -5 8 -15 32 -7 40 13
7 18 1 18 -17 -1z"/>
<path d="M2250 5050 c-9 -6 -10 -10 -3 -10 6 0 15 5 18 10 8 12 4 12 -15 0z"/>
<path d="M2247 5002 c1 -8 3 -16 3 -18 0 -3 9 0 20 6 11 6 20 16 19 23 0 9 -2
9 -6 0 -5 -14 -29 -17 -36 -5 -2 4 -2 1 0 -6z"/>
<path d="M2247 4945 c3 -8 9 -12 14 -9 12 7 11 11 -5 17 -10 4 -13 1 -9 -8z"/>
<path d="M7883 4871 c0 -11 5 -18 9 -15 4 3 5 11 1 19 -7 21 -12 19 -10 -4z"/>
<path d="M2382 4684 c2 -19 28 -31 28 -13 0 5 7 6 15 3 17 -7 21 11 4 22 -6 3
-15 0 -20 -7 -8 -12 -11 -12 -19 1 -7 12 -9 11 -8 -6z"/>
<path d="M2470 4559 c0 -5 5 -7 10 -4 6 3 10 8 10 11 0 2 -4 4 -10 4 -5 0 -10
-5 -10 -11z"/>
<path d="M7636 4404 c-5 -14 -4 -15 9 -4 17 14 19 20 6 20 -5 0 -12 -7 -15
-16z"/>
<path d="M2585 4380 c-3 -6 1 -7 9 -4 18 7 21 14 7 14 -6 0 -13 -4 -16 -10z"/>
<path d="M2616 4355 c11 -33 10 -48 -5 -53 -9 -3 -11 1 -7 16 4 11 3 23 -2 25
-4 3 -8 -6 -7 -21 0 -19 5 -27 18 -26 14 2 16 -3 11 -20 -6 -21 -6 -21 10 1
16 21 15 25 -4 60 -12 21 -18 29 -14 18z"/>
<path d="M7595 4329 c-4 -6 -4 -13 -1 -16 3 -4 6 -1 6 6 0 7 5 9 12 5 7 -4 8
-3 4 4 -9 15 -13 15 -21 1z"/>
<path d="M8295 7910 c3 -5 8 -10 11 -10 2 0 4 5 4 10 0 6 -5 10 -11 10 -5 0
-7 -4 -4 -10z"/>
<path d="M3640 2666 c0 -2 7 -9 15 -16 13 -11 14 -10 9 4 -5 14 -24 23 -24 12z"/>
<path d="M3705 2520 c-3 -5 -1 -10 4 -10 6 0 11 5 11 10 0 6 -2 10 -4 10 -3 0
-8 -4 -11 -10z"/>
<path d="M6417 2483 c-4 -3 -7 -11 -7 -17 0 -6 5 -5 12 2 6 6 9 14 7 17 -3 3
-9 2 -12 -2z"/>
<path d="M3842 2317 c10 -8 14 -18 10 -22 -4 -5 -1 -5 6 -1 17 10 15 14 -10
26 -21 10 -21 10 -6 -3z"/>
<path d="M3954 2194 c0 -13 4 -20 8 -18 5 3 6 10 3 15 -4 5 -1 9 6 9 6 0 9 -8
6 -20 -3 -13 -1 -18 6 -13 6 4 8 0 4 -10 -8 -21 0 -22 19 -2 14 13 13 15 -3
15 -14 0 -15 2 -5 9 11 7 10 9 -3 15 -9 3 -14 9 -11 14 2 4 -3 8 -13 8 -11 0
-17 -8 -17 -22z"/>
<path d="M4218 1863 c6 -2 10 -8 8 -11 -2 -4 2 -13 10 -20 17 -15 18 -8 4 19
-6 10 -16 19 -23 18 -9 0 -9 -2 1 -6z"/>
<path d="M4280 1740 c8 -5 20 -10 25 -10 6 0 3 5 -5 10 -8 5 -19 10 -25 10 -5
0 -3 -5 5 -10z"/>
<path d="M4544 1409 c0 -13 3 -15 13 -7 7 6 13 12 13 13 0 2 -6 5 -13 8 -7 3
-13 -3 -13 -14z"/>
<path d="M5620 1415 c-11 -13 -11 -18 0 -28 10 -9 11 -9 6 1 -4 7 -2 19 4 27
7 8 10 15 7 15 -2 0 -10 -7 -17 -15z"/>
<path d="M5581 1358 c-14 -23 -14 -23 8 -4 22 20 25 26 13 26 -4 0 -13 -10
-21 -22z"/>
<path d="M4609 1322 c-11 -14 -11 -15 1 -4 19 17 28 15 32 -5 3 -16 5 -15 9 2
8 27 -24 31 -42 7z"/>
<path d="M4716 1183 c-6 -14 -5 -15 5 -6 7 7 10 15 7 18 -3 3 -9 -2 -12 -12z"/>
<path d="M4879 1087 c6 -8 8 -17 4 -21 -4 -4 0 -4 10 -1 14 6 14 9 2 21 -17
18 -31 18 -16 1z"/>
</g>
</svg>
