<?xml version="1.0" standalone="no"?>
<!DOCTYPE svg PUBLIC "-//W3C//DTD SVG 20010904//EN"
 "http://www.w3.org/TR/2001/REC-SVG-20010904/DTD/svg10.dtd">
<svg version="1.0" xmlns="http://www.w3.org/2000/svg"
 width="1250.000000pt" height="1250.000000pt" viewBox="0 0 1250.000000 1250.000000"
 preserveAspectRatio="xMidYMid meet">
<metadata>
Created by potrace 1.14, written by Peter Selinger 2001-2017
</metadata>
<g transform="translate(0.000000,1250.000000) scale(0.100000,-0.100000)"
fill="#000000" stroke="none">
<path d="M0 6250 l0 -6250 6250 0 6250 0 0 6250 0 6250 -6250 0 -6250 0 0
-6250z m6119 4268 c-82 -148 -160 -322 -210 -468 -45 -131 -59 -231 -59 -429
0 -218 -36 -514 -106 -864 l-16 -78 43 -55 c65 -85 71 -85 124 -12 25 34 45
59 45 55 0 -3 -11 -36 -25 -73 -14 -36 -25 -72 -25 -78 0 -16 80 -54 130 -62
47 -8 96 10 112 40 6 11 14 73 17 136 l6 115 23 -75 c13 -41 33 -104 44 -140
12 -36 25 -81 29 -100 4 -19 23 -98 42 -175 19 -77 43 -178 52 -225 9 -47 24
-125 35 -175 11 -49 31 -146 46 -215 25 -119 71 -265 99 -320 l13 -25 10 25
c6 14 20 48 32 75 83 188 116 290 164 505 30 135 96 503 96 535 0 12 -24 53
-54 91 -30 39 -65 90 -78 115 -13 24 -32 56 -41 70 -28 42 -104 239 -126 325
-11 43 -22 106 -25 139 l-6 60 14 -45 c26 -86 77 -204 112 -256 62 -93 158
-117 185 -47 23 58 -16 298 -121 753 -119 512 -145 653 -138 736 3 34 5 30 16
-36 19 -109 39 -186 82 -323 21 -67 48 -158 60 -202 22 -84 167 -479 204 -555
27 -58 51 -63 88 -19 23 28 28 30 28 14 1 -50 30 -315 40 -360 32 -148 142
-390 214 -471 95 -107 197 -144 251 -90 25 25 45 82 45 131 0 17 6 50 14 75
l14 45 5 -35 c14 -85 17 -138 32 -530 17 -463 28 -610 56 -718 22 -85 62 -165
98 -194 l26 -19 -24 -42 c-13 -23 -52 -86 -87 -140 -130 -199 -159 -286 -158
-462 2 -146 29 -251 103 -392 l49 -92 -50 -51 c-28 -29 -63 -80 -79 -113 -43
-93 -45 -146 -14 -336 30 -182 31 -312 3 -365 l-16 -30 -25 50 c-74 146 -101
68 -78 -224 16 -193 51 -474 101 -804 62 -416 80 -568 89 -773 9 -191 -1 -471
-18 -516 -8 -23 -9 -22 -20 16 -6 22 -29 126 -51 230 -76 356 -98 420 -194
573 -69 108 -114 213 -154 358 -36 130 -43 162 -78 409 -33 237 -47 275 -90
247 -15 -9 -72 -124 -94 -187 -17 -49 -17 -42 -16 315 1 400 -1 420 -69 769
-19 96 -33 176 -32 177 1 2 13 -26 26 -62 31 -88 77 -134 132 -134 55 0 78 14
99 63 20 46 43 218 35 264 -3 15 -9 174 -15 353 -12 369 -28 576 -56 708 -5
27 12 30 21 3 11 -35 53 -71 83 -71 40 0 61 27 74 96 9 51 7 74 -12 164 -18
84 -24 153 -30 350 -8 247 -18 318 -56 392 -21 41 -26 34 -19 -27 7 -54 7 -55
-38 -106 -64 -74 -92 -129 -149 -302 -47 -142 -51 -160 -55 -280 l-6 -127 -37
-38 c-59 -59 -76 -131 -61 -250 8 -61 9 -97 3 -105 -19 -23 -130 -293 -157
-382 -14 -49 -54 -160 -88 -245 l-61 -155 -7 54 c-11 83 -24 85 -61 5 -42 -89
-49 -201 -23 -366 10 -62 18 -149 18 -193 1 -81 -18 -185 -33 -185 -5 0 -21
24 -37 53 -36 67 -64 71 -75 12 -20 -115 -7 -269 77 -930 88 -690 104 -837
111 -1035 7 -178 -7 -405 -26 -439 -8 -14 -46 136 -75 294 -49 265 -101 416
-185 540 -50 73 -97 179 -134 300 -39 131 -90 401 -100 533 -11 138 -37 232
-65 232 -23 0 -65 -63 -101 -154 -22 -55 -38 -86 -35 -68 2 19 8 181 11 360 8
358 4 405 -57 752 -35 199 -35 212 -5 137 41 -99 70 -130 132 -143 41 -8 78
24 99 86 18 56 37 260 30 335 -3 28 -7 176 -10 330 -4 272 -17 432 -50 602 -8
43 -15 80 -15 82 0 3 13 -16 30 -42 42 -67 99 -73 132 -14 20 37 13 162 -16
267 -14 52 -33 162 -41 245 -21 202 -40 286 -86 376 -36 69 -90 139 -109 139
-18 0 -33 -188 -38 -485 -5 -313 -5 -318 -19 -240 -18 105 -44 159 -88 179
-119 57 -179 -80 -220 -503 -9 -86 -25 -239 -36 -340 -26 -246 -42 -574 -34
-694 4 -63 3 -97 -4 -93 -5 4 -12 19 -16 34 -11 51 -42 92 -71 92 -42 0 -61
-17 -81 -72 -15 -45 -18 -87 -19 -283 0 -164 -5 -259 -17 -332 -28 -170 -37
-314 -26 -410 11 -105 20 -136 66 -229 l35 -71 -31 -44 c-43 -60 -59 -147 -43
-231 7 -35 34 -132 62 -216 111 -340 135 -618 80 -937 -20 -119 -68 -306 -69
-273 -1 10 6 66 15 125 23 152 16 294 -15 350 -27 47 -73 73 -100 56 -87 -54
-225 -685 -336 -1533 -32 -249 -46 -312 -39 -185 12 234 37 604 64 943 31 384
34 459 24 486 -9 22 -47 20 -69 -4 -10 -11 -20 -18 -22 -16 -3 2 20 81 51 175
85 261 99 343 92 531 -3 85 -12 186 -20 224 -36 161 -125 286 -206 286 -48 0
-66 -21 -130 -145 -37 -73 -49 -91 -45 -65 3 19 26 143 50 275 89 487 121 781
112 1044 -5 170 -20 240 -62 289 -14 17 -25 32 -25 35 0 4 52 85 115 182 141
215 180 291 212 414 47 175 33 438 -33 628 l-26 75 65 66 c68 71 100 125 137
232 19 55 23 97 30 276 9 227 20 306 52 396 28 77 44 90 53 42 3 -21 14 -55
22 -76 21 -53 43 -47 65 17 15 47 24 95 81 459 l24 150 -43 53 c-94 116 -163
234 -223 385 -29 74 -96 326 -89 333 2 3 15 -28 27 -68 32 -98 103 -244 142
-291 51 -61 129 -84 165 -49 14 14 16 30 11 103 -15 223 -204 763 -439 1250
-43 91 -75 160 -69 155 30 -32 207 -355 377 -692 108 -213 208 -403 221 -420
42 -57 54 -46 92 85 56 190 136 421 184 530 50 113 150 292 236 422 49 74 254
300 273 300 3 0 -29 -64 -73 -142z"/>
<path d="M7041 8118 c0 -31 3 -37 8 -24 7 18 3 66 -5 66 -2 0 -4 -19 -3 -42z"/>
</g>
</svg>
